<svg width="72" height="54" viewBox="0 0 72 54" fill="none" xmlns="http://www.w3.org/2000/svg">
<path d="M71.447 25.497C71.414 22.374 69.072 19.845 66.197 19.845C65.58 19.845 64.996 19.983 64.445 20.198C64.347 17.426 62.047 15.197 59.213 15.197C58.335 15.197 57.52 15.431 56.791 15.808C55.892 14.227 54.195 13.144 52.23 13.144C51.619 13.144 51.041 13.267 50.496 13.457V5.46196C50.496 2.60596 48.141 0.282959 45.246 0.282959C42.351 0.282959 39.996 2.60596 39.996 5.46196V26.79C37.006 26.928 34.65 28.617 33.982 31.332C33.105 34.899 33.393 38.926 34.839 43.299C35.928 46.59 38.46 49.9 42.578 53.414C42.909 53.696 43.314 53.834 43.718 53.834C44.214 53.834 44.708 53.625 45.056 53.218C45.687 52.481 45.599 51.37 44.861 50.74C41.295 47.697 39.047 44.822 38.177 42.195C36.923 38.406 36.668 35.128 37.396 32.172C37.693 30.962 38.775 30.406 39.996 30.303V33.457C39.996 34.427 40.783 35.214 41.754 35.214C42.725 35.214 43.512 34.427 43.512 33.457V28.601V28.6V5.46196C43.512 4.54396 44.289 3.79796 45.246 3.79796C46.203 3.79796 46.98 4.54396 46.98 5.46196V25.347C46.98 26.317 47.767 27.104 48.738 27.104C49.709 27.104 50.496 26.317 50.496 25.347V18.321C50.496 17.404 51.273 16.658 52.23 16.658C53.186 16.658 53.964 17.404 53.964 18.321V20.374V25.347V26.305C53.964 27.276 54.75 28.063 55.722 28.063C56.693 28.063 57.479 27.276 57.479 26.305V25.347V20.374C57.479 19.457 58.257 18.711 59.212 18.711C60.169 18.711 60.946 19.457 60.946 20.374V27.892C60.946 28.863 61.733 29.65 62.704 29.65C63.675 29.65 64.462 28.863 64.462 27.892V25.565C64.462 24.37 65.257 23.361 66.196 23.361C67.137 23.361 67.931 24.37 67.931 25.565C67.931 25.608 67.932 25.651 67.936 25.694C67.948 25.844 68.982 40.772 64.145 51.346C63.741 52.229 64.129 53.272 65.012 53.676C65.248 53.784 65.497 53.834 65.742 53.834C66.408 53.834 67.045 53.453 67.342 52.809C72.439 41.666 71.533 26.738 71.447 25.497Z" fill="black"/>
<path d="M20.237 27.8389L19.328 28.7469V23.2249C19.328 22.2549 18.541 21.4669 17.571 21.4669C16.6 21.4669 15.813 22.2549 15.813 23.2249V28.7469L14.904 27.8389C14.217 27.1519 13.105 27.1519 12.418 27.8389C11.732 28.5259 11.732 29.6379 12.418 30.3239L16.326 34.2299C16.489 34.3939 16.685 34.5239 16.902 34.6129C16.911 34.6169 16.92 34.6189 16.928 34.6219C17.127 34.7009 17.343 34.7469 17.57 34.7469C17.797 34.7469 18.012 34.7009 18.211 34.6219C18.22 34.6189 18.229 34.6169 18.237 34.6129C18.454 34.5239 18.65 34.3939 18.813 34.2299L22.721 30.3239C23.408 29.6379 23.408 28.5259 22.721 27.8389C22.037 27.1519 20.924 27.1519 20.237 27.8389Z" fill="black"/>
<path d="M14.905 7.65898L15.814 6.75098V12.273C15.814 13.243 16.601 14.031 17.572 14.031C18.543 14.031 19.329 13.243 19.329 12.273V6.74998L20.238 7.65798C20.581 8.00098 21.031 8.17298 21.481 8.17298C21.931 8.17298 22.381 8.00098 22.724 7.65798C23.41 6.97098 23.41 5.85798 22.724 5.17298L18.816 1.26698C18.653 1.10298 18.457 0.973978 18.24 0.883978C18.231 0.880978 18.222 0.879977 18.214 0.875977C18.015 0.796977 17.799 0.750977 17.573 0.750977C17.346 0.750977 17.131 0.796977 16.931 0.875977C16.922 0.878977 16.913 0.879978 16.905 0.883978C16.688 0.973978 16.492 1.10398 16.329 1.26698L12.421 5.17298C11.734 5.85898 11.734 6.97198 12.421 7.65798C13.105 8.34598 14.218 8.34598 14.905 7.65898Z" fill="black"/>
<path d="M6.57399 19.758H12.095C13.066 19.758 13.852 18.971 13.852 18.001C13.852 17.03 13.065 16.243 12.095 16.243H6.57299L7.48099 15.334C8.16799 14.647 8.16799 13.535 7.48099 12.849C6.79399 12.163 5.68199 12.162 4.99599 12.849L1.08799 16.757C1.00599 16.839 0.932992 16.928 0.868992 17.024C0.855992 17.044 0.846991 17.067 0.833991 17.088C0.786991 17.165 0.741991 17.242 0.706991 17.326C0.693991 17.358 0.686991 17.392 0.675991 17.425C0.649991 17.5 0.621992 17.574 0.606992 17.654C0.583992 17.768 0.571991 17.884 0.571991 18.002C0.571991 18.12 0.583992 18.236 0.606992 18.35C0.620992 18.421 0.646991 18.487 0.669991 18.555C0.682991 18.596 0.690992 18.638 0.707992 18.678C0.739992 18.756 0.782992 18.826 0.825992 18.898C0.841992 18.925 0.852991 18.954 0.869991 18.98C0.933991 19.076 1.00699 19.165 1.08899 19.246L4.99699 23.151C5.33999 23.494 5.78999 23.666 6.23999 23.666C6.68999 23.666 7.13999 23.494 7.48299 23.151C8.16899 22.464 8.16899 21.351 7.48299 20.666L6.57399 19.758Z" fill="black"/>
<path d="M34.055 19.239C34.217 19.077 34.346 18.883 34.434 18.667C34.438 18.657 34.439 18.647 34.443 18.638C34.521 18.439 34.567 18.225 34.567 17.999V17.998C34.567 17.771 34.521 17.557 34.442 17.358C34.438 17.349 34.437 17.34 34.434 17.331C34.345 17.114 34.214 16.918 34.051 16.755L30.145 12.849C29.458 12.162 28.346 12.162 27.66 12.849C26.974 13.536 26.973 14.648 27.66 15.334L28.566 16.24H23.046C22.075 16.24 21.289 17.028 21.289 17.998C21.289 18.968 22.076 19.755 23.046 19.755H28.567L27.659 20.664C26.973 21.351 26.973 22.464 27.659 23.149C28.002 23.492 28.452 23.664 28.902 23.664C29.352 23.664 29.802 23.492 30.145 23.149L34.052 19.24C34.054 19.24 34.055 19.24 34.055 19.239Z" fill="black"/>
</svg>
