<svg width="518" height="340" viewBox="0 0 518 340" fill="none" xmlns="http://www.w3.org/2000/svg">
<path d="M49.4038 254.404C46.8654 256.942 46.8654 261.058 49.4038 263.596L90.7696 304.962C93.308 307.5 97.4235 307.5 99.9619 304.962C102.5 302.424 102.5 298.308 99.9619 295.77L63.1924 259L99.9619 222.23C102.5 219.692 102.5 215.576 99.9619 213.038C97.4235 210.5 93.308 210.5 90.7696 213.038L49.4038 254.404ZM63 252.5H54V265.5H63V252.5Z" fill="black"/>
<path d="M122 185.5H40C22.0507 185.5 7.5 200.051 7.5 218V300C7.5 317.949 22.0507 332.5 40 332.5H122C139.949 332.5 154.5 317.949 154.5 300V218C154.5 200.051 139.949 185.5 122 185.5Z" stroke="black" stroke-width="15"/>
<path d="M468.596 263.596C471.135 261.058 471.135 256.942 468.596 254.404L427.23 213.038C424.692 210.5 420.576 210.5 418.038 213.038C415.5 215.576 415.5 219.692 418.038 222.23L454.808 259L418.038 295.77C415.5 298.308 415.5 302.424 418.038 304.962C420.576 307.5 424.692 307.5 427.23 304.962L468.596 263.596ZM455 265.5H464V252.5H455V265.5Z" fill="black"/>
<path d="M396 332.5H478C495.949 332.5 510.5 317.949 510.5 300V218C510.5 200.051 495.949 185.5 478 185.5H396C378.051 185.5 363.5 200.051 363.5 218V300C363.5 317.949 378.051 332.5 396 332.5Z" stroke="black" stroke-width="15"/>
<path d="M254.404 290.596C256.942 293.135 261.058 293.135 263.596 290.596L304.962 249.23C307.5 246.692 307.5 242.576 304.962 240.038C302.424 237.5 298.308 237.5 295.77 240.038L259 276.808L222.23 240.038C219.692 237.5 215.576 237.5 213.038 240.038C210.5 242.576 210.5 246.692 213.038 249.23L254.404 290.596ZM252.5 277V286H265.5V277H252.5Z" fill="black"/>
<path d="M185.5 218V300C185.5 317.949 200.051 332.5 218 332.5H300C317.949 332.5 332.5 317.949 332.5 300V218C332.5 200.051 317.949 185.5 300 185.5H218C200.051 185.5 185.5 200.051 185.5 218Z" stroke="black" stroke-width="15"/>
<path d="M263.596 49.4038C261.058 46.8654 256.942 46.8654 254.404 49.4038L213.038 90.7696C210.5 93.308 210.5 97.4235 213.038 99.9619C215.576 102.5 219.692 102.5 222.23 99.9619L259 63.1924L295.77 99.9619C298.308 102.5 302.424 102.5 304.962 99.9619C307.5 97.4235 307.5 93.308 304.962 90.7696L263.596 49.4038ZM265.5 63V54H252.5V63H265.5Z" fill="black"/>
<path d="M332.5 122V40C332.5 22.0507 317.949 7.5 300 7.5L218 7.5C200.051 7.5 185.5 22.0507 185.5 40V122C185.5 139.949 200.051 154.5 218 154.5H300C317.949 154.5 332.5 139.949 332.5 122Z" stroke="black" stroke-width="15"/>
</svg>
