<svg width="518" height="340" viewBox="0 0 518 340" fill="none" xmlns="http://www.w3.org/2000/svg">
<path d="M49.4038 254.404C46.8654 256.942 46.8654 261.058 49.4038 263.596L90.7696 304.962C93.308 307.5 97.4235 307.5 99.9619 304.962C102.5 302.424 102.5 298.308 99.9619 295.77L63.1924 259L99.9619 222.23C102.5 219.692 102.5 215.576 99.9619 213.038C97.4235 210.5 93.308 210.5 90.7696 213.038L49.4038 254.404ZM63 252.5H54V265.5H63V252.5Z" fill="white"/>
<rect x="7.5" y="185.5" width="147" height="147" rx="32.5" stroke="white" stroke-width="15"/>
<path d="M468.596 263.596C471.135 261.058 471.135 256.942 468.596 254.404L427.23 213.038C424.692 210.5 420.576 210.5 418.038 213.038C415.5 215.576 415.5 219.692 418.038 222.23L454.808 259L418.038 295.77C415.5 298.308 415.5 302.424 418.038 304.962C420.576 307.5 424.692 307.5 427.23 304.962L468.596 263.596ZM455 265.5L464 265.5L464 252.5L455 252.5L455 265.5Z" fill="white"/>
<rect x="510.5" y="332.5" width="147" height="147" rx="32.5" transform="rotate(-180 510.5 332.5)" stroke="white" stroke-width="15"/>
<path d="M254.404 290.596C256.942 293.135 261.058 293.135 263.596 290.596L304.962 249.23C307.5 246.692 307.5 242.576 304.962 240.038C302.424 237.5 298.308 237.5 295.77 240.038L259 276.808L222.23 240.038C219.692 237.5 215.576 237.5 213.038 240.038C210.5 242.576 210.5 246.692 213.038 249.23L254.404 290.596ZM252.5 277L252.5 286L265.5 286L265.5 277L252.5 277Z" fill="white"/>
<rect x="185.5" y="332.5" width="147" height="147" rx="32.5" transform="rotate(-90 185.5 332.5)" stroke="white" stroke-width="15"/>
<path d="M263.596 49.4038C261.058 46.8654 256.942 46.8654 254.404 49.4038L213.038 90.7696C210.5 93.308 210.5 97.4235 213.038 99.9619C215.576 102.5 219.692 102.5 222.23 99.9619L259 63.1924L295.77 99.9619C298.308 102.5 302.424 102.5 304.962 99.9619C307.5 97.4235 307.5 93.308 304.962 90.7696L263.596 49.4038ZM265.5 63L265.5 54L252.5 54L252.5 63L265.5 63Z" fill="white"/>
<rect x="332.5" y="7.5" width="147" height="147" rx="32.5" transform="rotate(90 332.5 7.5)" stroke="white" stroke-width="15"/>
</svg>
