<?xml version="1.0" encoding="UTF-8"?>
<svg width="28px" height="22px" viewBox="0 0 28 22" version="1.1" xmlns="http://www.w3.org/2000/svg" xmlns:xlink="http://www.w3.org/1999/xlink">
    <g id="Page-1" stroke="none" stroke-width="1" fill="none" fill-rule="evenodd">
        <g id="noun_Mute_1126720" transform="translate(-2.000000, -5.000000)">
            <rect id="Rectangle" x="0" y="0" width="32" height="32"></rect>
            <path d="M20.99,10.99 C20.5830765,10.9901078 20.2167908,11.2367577 20.06367,11.6137733 C19.9105491,11.9907889 20.0011271,12.4229891 20.29274,12.7068 L23.58574,15.9998 L20.29274,19.2928 C20.0320768,19.5437471 19.9272869,19.9159178 20.0187209,20.2660029 C20.1101549,20.616088 20.383552,20.8894851 20.7336371,20.9809191 C21.0837222,21.0723531 21.4558929,20.9675632 21.70684,20.7069 L24.99984,17.4139 L28.29284,20.7069 C28.5437871,20.9675632 28.9159578,21.0723531 29.2660429,20.9809191 C29.616128,20.8894851 29.8895251,20.616088 29.9809591,20.2660029 C30.0723931,19.9159178 29.9676032,19.5437471 29.70694,19.2928 L26.41394,15.9998 L29.70694,12.7068 C30.0027025,12.4193093 30.0916325,11.9797337 29.9308786,11.5998856 C29.7701246,11.2200375 29.3926645,10.977841 28.98038,10.99 C28.7205806,10.9977426 28.4740007,11.1063238 28.29288,11.29274 L24.99988,14.58574 L21.70688,11.29274 C21.5186091,11.0992044 21.2600836,10.9900163 20.99008,10.99 L20.99,10.99 Z" id="Path" fill="#ffffff"></path>
            <path d="M14.852,5.0547 C14.34093,5.15705 13.85904,5.41192 13.4829,5.80079 C12.0039,7.32879 10.2826,9.10579 9.2388,10.18359 C8.81242,10.62407 8.25809,10.86361 7.6822,10.87109 C6.5026,10.876698 5.5988,10.896351 4.8443,11 C4.08779,11.10393 3.4188,11.30051 2.9009,11.78906 C2.383,12.27762 2.1702,12.94936 2.08254,13.62306 C1.994882,14.29678 2.00043571,15.04826 2.00043571,16.00006 C2.00043571,16.95156 1.994869,17.70346 2.08254,18.37706 C2.170208,19.05062 2.38304,19.72266 2.9009,20.21106 C3.41876,20.69947 4.0878,20.89601 4.8443,21.00012 C5.59865,21.10395 6.5026,21.12292 7.6822,21.12903 C8.25682,21.13653 8.8125,21.37605 9.2388,21.81653 C10.2832,22.89393 12.0039,24.67133 13.4829,26.19933 C14.23525,26.97707 15.4075,27.21633 16.397,26.77745 C16.3976667,26.7774507 16.3983333,26.7774507 16.399,26.77745 C17.3887,26.33684 18.0005,25.33795 18.0005,24.25985 L18.0005,7.73985 C18.0005,6.66175 17.38869,5.66285 16.3989,5.22225 C16.3982333,5.22224933 16.3975667,5.22224933 16.3969,5.22225 C15.9022,5.00281 15.3631,4.95193 14.852,5.05428 L14.852,5.0547 Z M15.58638,7.0508 C15.81794,7.15465 16.00044,7.41902 16.00044,7.74025 L16.00044,24.26025 C16.00044,24.58149 15.81794,24.84585 15.58638,24.9497 C15.35388,25.05282 15.11601,25.01133 14.92036,24.80908 C13.44136,23.28108 11.71986,21.50288 10.67426,20.42428 C9.89064,19.61476 8.82486,19.14388 7.70746,19.12938 C7.70485668,19.1293698 7.70225332,19.1293698 7.69965,19.12938 C6.53655,19.123435 5.68165,19.095688 5.11765,19.01805 C4.55365,18.940412 4.34291,18.82142 4.2739,18.75633 C4.204886,18.691241 4.12397,18.5733 4.06492,18.11961 C4.005869,17.66592 4.000467,16.95201 4.000467,16.00051 C4.000467,15.04876 4.005857,14.33531 4.06492,13.88141 C4.123981,13.42748 4.20493,13.30976 4.2739,13.24469 C4.342877,13.17962 4.5537,13.05849 5.11765,12.98102 C5.68161,12.90354 6.53655,12.8771 7.69965,12.87164 C7.70225332,12.8716502 7.70485668,12.8716502 7.70746,12.87164 C8.82556,12.85712 9.89256,12.38624 10.67616,11.57674 C11.72036,10.49854 13.44126,8.71994 14.92026,7.19194 C15.11591,6.98969 15.35377,6.94819 15.58628,7.05132 L15.58638,7.0508 Z" id="Shape" fill="#ffffff"></path>
        </g>
    </g>
</svg>