<?xml version="1.0" encoding="UTF-8"?>
<svg width="28px" height="22px" viewBox="0 0 28 22" version="1.1" xmlns="http://www.w3.org/2000/svg" xmlns:xlink="http://www.w3.org/1999/xlink">
    <g id="Page-1" stroke="none" stroke-width="1" fill="none" fill-rule="evenodd">
        <g id="noun_Volume_1126643" transform="translate(-2.000000, -5.000000)">
            <rect id="Rectangle" x="0" y="0" width="32" height="32"></rect>
            <g id="Group" transform="translate(2.000000, 4.000000)" fill="#ffffff">
                <path d="M22.447,0.9900607 C22.0396315,1.00658382 21.6829874,1.26860703 21.5455923,1.65245604 C21.4081971,2.03630505 21.5175585,2.46513054 21.822,2.7363 C24.5088,5.2096 25.9997,8.5367 25.9997,12 C25.9997,15.4633 24.5088,18.7904 21.822,21.2637 C21.5561447,21.5051536 21.4400467,21.8705461 21.5177785,22.2211693 C21.5955104,22.5717926 21.8551532,22.8538848 22.1981429,22.9603598 C22.5411327,23.0668348 22.914878,22.9813666 23.1775,22.7364 C26.2527,19.9057 27.9998,16.0388 27.9998,12.0004 C27.9998,7.962 26.2527,4.0948 23.1775,1.2644 C22.981052,1.0781485 22.7174923,0.979489061 22.44703,0.99096 L22.447,0.9900607 Z" id="Path"></path>
                <path d="M20,5.99013493 C19.592501,5.98556732 19.222947,6.22865491 19.0658385,6.60467865 C18.9087301,6.9807024 18.9954936,7.41444638 19.28516,7.7011 C20.38066,8.818 20.99996,10.3374 20.99996,11.9238 C20.99996,13.5113 20.38064,15.0296 19.28516,16.1465 C19.0350026,16.4018913 18.9400973,16.77134 19.036194,17.1156783 C19.1322907,17.4600166 19.40479,17.7269313 19.751044,17.8158783 C20.0972981,17.9048253 20.4647026,17.8022913 20.71486,17.5469 C22.18136,16.0518 23.00006,14.0304 23.00006,11.9239 C23.00006,9.8182 22.18138,7.794 20.71486,6.2989 C20.5280476,6.10369814 20.270202,5.99238854 20.00002,5.99031 L20,5.99013493 Z" id="Path"></path>
                <path d="M12.852,1.0547 C12.34093,1.15705 11.85904,1.41192 11.4829,1.80079 C10.0039,3.32879 8.2826,5.10579 7.2388,6.18359 C6.81242,6.62407 6.25809,6.86361 5.6822,6.87109 C4.5026,6.876698 3.5988,6.896351 2.8443,7 C2.08779,7.10393 1.4188,7.30051 0.9009,7.78906 C0.383,8.27762 0.1702,8.94936 0.08254,9.62306 C-0.005118,10.29678 0.00043570794,11.04826 0.00043570794,12.00006 C0.00043570794,12.95156 -0.005131,13.70346 0.08254,14.37706 C0.170208,15.05062 0.38304,15.72266 0.9009,16.21106 C1.41876,16.69947 2.0878,16.89601 2.8443,17.00012 C3.59865,17.10395 4.5026,17.12292 5.6822,17.12903 C6.25682,17.13653 6.8125,17.37605 7.2388,17.81653 C8.2832,18.89393 10.0039,20.67133 11.4829,22.19933 C12.23525,22.97707 13.4075,23.21633 14.397,22.77745 C14.3976667,22.7774507 14.3983333,22.7774507 14.399,22.77745 C15.3887,22.33684 16.0005,21.33795 16.0005,20.25985 L16.0005,3.73985 C16.0005,2.66175 15.38869,1.66285 14.3989,1.22225 C14.3982333,1.22224933 14.3975667,1.22224933 14.3969,1.22225 C13.9022,1.00281 13.3631,0.95193 12.852,1.05428 L12.852,1.0547 Z M13.58638,3.0508 C13.81794,3.15465 14.00044,3.41902 14.00044,3.74025 L14.00044,20.26025 C14.00044,20.58149 13.81794,20.84585 13.58638,20.9497 C13.35388,21.05282 13.11601,21.01133 12.92036,20.80908 C11.44136,19.28108 9.71986,17.50288 8.67426,16.42428 C7.89064,15.61476 6.82486,15.14388 5.70746,15.12938 C5.70485668,15.1293698 5.70225332,15.1293698 5.69965,15.12938 C4.53655,15.123435 3.68165,15.095688 3.11765,15.01805 C2.55365,14.940412 2.34291,14.82142 2.2739,14.75633 C2.204886,14.691241 2.12397,14.5733 2.06492,14.11961 C2.005869,13.66592 2.000467,12.95201 2.000467,12.00051 C2.000467,11.04876 2.005857,10.33531 2.06492,9.88141 C2.123981,9.42748 2.20493,9.30976 2.2739,9.24469 C2.342877,9.17962 2.5537,9.05849 3.11765,8.98102 C3.68161,8.90354 4.53655,8.8771 5.69965,8.87164 C5.70225332,8.87165017 5.70485668,8.87165017 5.70746,8.87164 C6.82556,8.85712 7.89256,8.38624 8.67616,7.57674 C9.72036,6.49854 11.44126,4.71994 12.92026,3.19194 C13.11591,2.98969 13.35377,2.94819 13.58628,3.05132 L13.58638,3.0508 Z" id="Shape"></path>
            </g>
        </g>
    </g>
</svg>