<?xml version="1.0" encoding="UTF-8"?>
<svg width="1771px" height="1438px" viewBox="0 0 1771 1438" version="1.1" xmlns="http://www.w3.org/2000/svg" xmlns:xlink="http://www.w3.org/1999/xlink">
    <!-- Generator: Sketch 43.1 (39012) - http://www.bohemiancoding.com/sketch -->
    <title>blobs</title>
    <desc>Created with Sketch.</desc>
    <defs>
        <rect id="path-1" x="0" y="0" width="1771" height="1560"></rect>
        <rect id="path-3" x="0" y="0" width="1771" height="1560"></rect>
        <rect id="path-5" x="0" y="0" width="1771" height="1560"></rect>
    </defs>
    <g id="Page-1" stroke="none" stroke-width="1" fill="none" fill-rule="evenodd">
        <g id="blobs">
            <g id="Path-Clipped">
                <mask id="mask-2" fill="white">
                    <use xlink:href="#path-1"></use>
                </mask>
                <g id="path-1"></g>
                <path d="M1044.91727,-31.8719612 C1044.91727,-31.8719612 994.198518,53.7139763 1189.73758,88.8624138 C1385.27664,124.010851 1298.93289,330.026476 1165.94071,334.643664 C1032.94852,339.260851 1049.55008,477.018664 1168.08133,508.878039 C1286.61258,540.737414 1360.49539,386.807726 1544.04227,477.096789 C1727.58914,567.385851 1763.20633,359.831164 1842.10477,354.003039 C1921.00321,348.174914 1950.37821,142.542101 1738.13602,207.151476 C1525.89383,271.760851 1649.69852,-161.418836 1775.65946,-177.371961 C1901.62039,-193.325086 1825.40164,-397.786024 1411.78446,-236.168836 C998.167268,-74.5516487 1044.91727,-31.8719612 1044.91727,-31.8719612 Z" id="Path" fill="#FF0000" fill-rule="nonzero" mask="url(#mask-2)"></path>
            </g>
            <g id="Path-2-Clipped">
                <mask id="mask-4" fill="white">
                    <use xlink:href="#path-3"></use>
                </mask>
                <g id="path-3"></g>
                <path d="M-183,366.981986 C-183,366.981986 89.6171875,437.810111 262.882813,330.466361 C436.148438,223.122611 658.304687,411.481986 550.148437,469.294486 C441.992188,527.106986 250.578125,484.911673 357.5,667.036673 C464.421875,849.161673 653.59375,636.638236 725.984375,804.028861 C798.375,971.419486 695.046875,1057.98199 559.804687,1033.84136 C424.5625,1009.70074 385.703125,808.271048 220.117188,844.075736 C54.53125,879.880423 -90.421875,1226.9273 -118.492188,1093.57574 C-146.5625,960.224173 -183,366.981986 -183,366.981986 Z" id="Path-2" fill="#FF0000" fill-rule="nonzero" mask="url(#mask-4)"></path>
            </g>
            <g id="Path-3-Clipped">
                <mask id="mask-6" fill="white">
                    <use xlink:href="#path-5"></use>
                </mask>
                <g id="path-5"></g>
                <path d="M1775.76002,983.202839 C1775.76002,983.202839 1562.82252,1033.52315 1491.12721,929.359089 C1419.4319,825.195026 1303.15846,745.851276 1246.58034,820.070026 C1190.00221,894.288776 1474.27565,1118.21846 1347.12721,1204.31221 C1219.97877,1290.40596 924.619398,1202.93721 855.580336,1300.10128 C786.541273,1397.26534 1143.42409,1532.8044 1591.5569,1339.20284 C2039.68971,1145.60128 1739.76002,1159.20284 1792.1194,1071.20284 C1844.47877,983.202839 1775.76002,983.202839 1775.76002,983.202839 Z" id="Path-3" fill="#FF0000" fill-rule="nonzero" mask="url(#mask-6)"></path>
            </g>
        </g>
    </g>
</svg>