<?xml version="1.0" encoding="UTF-8"?>
<svg width="1636px" height="1636px" viewBox="0 0 1636 1636" version="1.1" xmlns="http://www.w3.org/2000/svg" xmlns:xlink="http://www.w3.org/1999/xlink">
    <!-- Generator: Sketch 58 (84663) - https://sketch.com -->
    <title>Group 4</title>
    <desc>Created with Sketch.</desc>
    <defs>
        <circle id="path-1" cx="818" cy="818" r="818"></circle>
    </defs>
    <g id="Page-1" stroke="none" stroke-width="1" fill="none" fill-rule="evenodd">
        <g id="Group-4">
            <mask id="mask-2" fill="white">
                <use xlink:href="#path-1"></use>
            </mask>
            <g id="Mask"></g>
            <g id="logo-copy-2" mask="url(#mask-2)">
                <g transform="translate(-1.000000, 0.000000)">
                    <circle id="Mask" fill="#000000" cx="819" cy="818" r="818"></circle>
                    <g id="text" stroke-width="1" fill="none" transform="translate(256.500000, 391.000000)">
                        <path d="M81.5391911,41.2681646 C134.073568,41.2681646 139.620043,89.0443844 139.628894,108.705498 C139.628894,126.865122 133.750428,176.142832 81.6432155,176.142832 C58.3108349,176.142832 44.1414255,169.048591 35.7331796,157.322553 L34.1949518,157.322553 L34.1949518,176.142832 L0.5,176.142832 L0.5,2.50328423 L34.1949518,2.50328423 L34.1949518,61.0734195 L36.0762384,61.0734195 C44.5154701,49.1263623 58.5742155,41.268161 81.5391911,41.268161 L81.5391911,41.2681646 Z M71.8583101,144.700426 C103.862317,144.700426 107.463322,118.396713 107.463322,108.705495 C107.463322,98.2118809 104.052659,72.7105707 71.7985541,72.7105707 C42.7138616,72.7105707 36.7712077,90.4497771 36.7712077,108.705498 C36.7712077,129.09934 42.7205012,144.700426 71.8583101,144.700426 Z M223.390422,41.3402332 C232.442729,41.3402332 239.638096,43.3582348 245.463447,44.7492138 L240.098459,79.249858 C236.960032,78.2961111 228.447761,76.2468774 217.799679,76.2468774 C192.827258,76.2468774 185.36851,97.4094817 185.36851,115.665203 L185.36851,176.142832 L151.666919,176.142832 L151.666919,41.3402332 L185.36851,41.3402332 L185.36851,61.1454918 L187.468913,61.1454918 C194.385408,48.2350761 202.047777,41.3402332 223.390419,41.3402332 L223.390422,41.3402332 Z M290.988368,176.142832 L257.461627,176.142832 L257.461627,42.1426288 L290.988368,42.1426288 L290.988368,176.142832 Z M290.988368,32.5547113 L257.461627,32.5547113 L257.461627,0 L290.988368,0 L290.988368,32.5547113 Z M408.258926,2.50328423 L441.962733,2.50328423 L441.962733,176.142832 L408.267781,176.142832 L408.267781,157.322553 L406.729553,157.322553 C398.321307,169.048591 384.151898,176.142832 360.819517,176.142832 C308.70345,176.142832 302.833835,126.865122 302.833835,108.705498 C302.833835,89.0443844 308.38031,41.2681646 360.914686,41.2681646 C383.881877,41.2681646 397.933983,49.1191555 406.370999,61.0734195 L408.258926,61.0734195 L408.258926,2.50328423 Z M370.591143,144.700426 C399.73338,144.700426 405.676034,129.09934 405.676034,108.705498 C405.676034,90.4497771 399.72674,72.7105707 370.648687,72.7105707 C338.387942,72.7105707 334.983919,98.2118809 334.983919,108.705495 C334.983919,118.396713 338.593776,144.700426 370.591143,144.700426 Z M559.425841,42.8032772 L593.136288,42.8032772 L593.136288,163.162742 C593.136288,190.881455 588.36446,241 526.638338,241 C470.854871,241 460.171375,208.293937 460.171375,188.26766 L493.543187,188.26766 C494.320046,195.534873 500.218432,209.454289 526.470127,209.454289 C549.202711,209.454289 559.434696,193.255012 559.434696,168.661803 L559.434696,158.857673 L557.896469,158.857673 C549.488223,170.583711 535.318813,177.677952 511.986433,177.677952 C459.870366,177.677952 454.00075,128.400242 454.00075,110.240618 C454.00075,90.5867111 459.547225,42.8032772 512.081602,42.8032772 C535.048793,42.8032772 549.100899,50.6614859 557.537915,62.6085431 L559.425841,62.6085431 L559.425841,42.8032772 Z M521.758059,146.235542 C550.900295,146.235542 556.842949,130.641664 556.842949,110.240615 C556.842949,91.9848934 550.893656,74.245687 521.815603,74.245687 C489.554858,74.245687 486.150835,99.7469972 486.150835,110.240611 C486.150835,119.931829 489.760691,146.235542 521.758059,146.235542 Z M736.948477,117.205132 L736.948487,117.214744 L637.888783,117.214744 C640.195019,135.230227 650.125998,144.15989 671.913511,144.15989 C692.032211,144.15989 701.994176,138.091468 705.090553,129.241084 L737.709852,129.241084 C734.261564,158.172999 712.702018,176.142836 671.913511,176.142836 C629.347739,176.142836 605.167673,152.914179 605.167673,108.061661 C605.167673,64.0379648 629.96303,39.9828875 671.913508,39.9828875 C689.486937,39.9828875 703.45715,44.7564243 713.959155,52.6939012 L713.959155,52.6458505 C737.957731,70.2096839 740.109038,98.7283921 738.185699,117.205132 L736.948477,117.205132 Z M671.913511,71.9658301 C653.295414,71.9658301 643.063429,79.4012094 639.176913,93.063569 L704.732007,93.063569 C701.978688,82.9663472 695.88996,71.9658301 671.913515,71.9658301 L671.913511,71.9658301 Z M872.792863,72.4823413 L872.792867,120.407508 L872.784015,120.407508 L872.792867,123.107789 C872.792867,142.713649 880.908958,139.878835 913.096665,137.988159 L913.096665,173.649156 C913.096665,173.649156 906.478964,176.142832 872.784012,176.142832 C839.08906,176.142832 839.08906,146.091405 839.08906,126.492752 L839.08906,72.4823413 L822.511606,72.4823413 L822.511606,41.6909793 L839.08906,41.6909793 L839.08906,2.76514326 L872.792863,2.76514326 L872.792863,41.6909793 L913.103304,41.6909793 L913.103304,72.4823413 L872.792863,72.4823413 Z M994.244304,38.8057168 C1031.89881,38.8057168 1063.5,60.794742 1063.5,107.475475 C1063.5,154.773623 1031.89881,176.142832 994.244304,176.142832 C956.587586,176.142832 924.986397,154.098553 924.986397,107.475475 C924.986397,61.1286733 956.587586,38.8057168 994.244304,38.8057168 Z M994.244304,142.761704 C1015.34349,142.761704 1030.37607,131.926948 1030.37607,107.465867 C1030.37607,82.6180058 1015.34349,72.1724389 994.244304,72.1724389 C973.142909,72.1724389 958.110322,82.2047954 958.110322,107.465867 C958.110322,132.753365 973.142909,142.761704 994.244304,142.761704 Z" id="bridgeto-copy" fill="#FFFFFF" fill-rule="nonzero"></path>
                        <path d="M135.532746,321.945792 L82.7411366,378.504926 L135.063114,457.352236 L93.179391,457.352236 L58.2604125,404.727025 L34.056598,430.664339 L34.056598,456.954015 L0.5,456.954015 L0.5,283 L34.056598,283 L34.056598,380.833897 L88.8352866,321.945792 L135.532746,321.945792 Z M255.076468,322.109908 L290.713182,322.109908 L224.991162,509 L189.361091,509 L207.461896,457.516348 L195.492903,457.516348 L147.592565,322.109908 L183.222636,322.109908 L219.255885,423.974264 L255.076468,322.109908 Z M371.979614,319.382712 C409.667654,319.382712 441.296986,341.472992 441.296986,388.368678 C441.296986,435.884623 409.667654,457.352232 371.979614,457.352232 C334.289359,457.352232 302.660028,435.206445 302.660028,388.368678 C302.660028,341.808461 334.289359,319.382712 371.979614,319.382712 Z M371.979614,423.817392 C393.097587,423.817392 408.143561,412.932744 408.143561,388.359026 C408.143561,363.396746 393.097587,352.90308 371.979614,352.90308 C350.859426,352.90308 335.813452,362.981633 335.813452,388.359026 C335.813452,413.762967 350.859426,423.817392 371.979614,423.817392 Z M503.623027,353.21441 L503.623031,401.36026 L503.614171,401.36026 L503.623031,404.072976 C503.623031,423.769116 511.74635,420.921248 543.962722,419.021866 L543.962722,454.847073 C543.962722,454.847073 537.339127,457.352232 503.614168,457.352232 C469.889209,457.352232 469.889209,427.162425 469.889209,407.473525 L469.889209,353.21441 L453.296992,353.21441 L453.296992,322.281261 L469.889209,322.281261 L469.889209,283.176181 L503.623027,283.176181 L503.623027,322.281261 L543.969367,322.281261 L543.969367,353.21441 L503.623027,353.21441 Z M625.182628,319.382712 C662.870668,319.382712 694.5,341.472992 694.5,388.368678 C694.5,435.884623 662.870668,457.352232 625.182628,457.352232 C587.492374,457.352232 555.863042,435.206445 555.863042,388.368678 C555.863042,341.808461 587.492374,319.382712 625.182628,319.382712 Z M625.182628,423.817392 C646.300602,423.817392 661.346576,412.932744 661.346576,388.359026 C661.346576,363.396746 646.300602,352.90308 625.182628,352.90308 C604.06244,352.90308 589.016466,362.981633 589.016466,388.359026 C589.016466,413.762967 604.06244,423.817392 625.182628,423.817392 Z" id="kyoto-copy-24" fill="#FFFFFF" fill-rule="nonzero"></path>
                    </g>
                    <g id="bridge" stroke-width="1" fill="none" transform="translate(0.500000, 1023.000000)">
                        <rect id="Rectangle-Copy-252" fill="#FFFFFF" x="513.5" y="113" width="1120" height="36"></rect>
                        <rect id="Rectangle-Copy-253" fill="#FFFFFF" x="0.5" y="227" width="849" height="36"></rect>
                        <rect id="Rectangle-Copy-254" fill="#FFFFFF" x="849.5" y="227" width="784" height="36"></rect>
                        <rect id="Rectangle-Copy-255" fill="#FFFFFF" x="616.5" y="0" width="1017" height="33"></rect>
                        <polygon id="Rectangle-Copy-256" fill="#FFFFFF" transform="translate(1299.500000, 128.000000) rotate(-90.000000) translate(-1299.500000, -128.000000) " points="1199.5 100 1399.5 100 1399.5 156 1199.5 156"></polygon>
                        <polygon id="Rectangle-Copy-257" fill="#FFFFFF" transform="translate(876.500000, 128.000000) rotate(-90.000000) translate(-876.500000, -128.000000) " points="776.5 100 976.5 100 976.5 156 776.5 156"></polygon>
                    </g>
                </g>
            </g>
        </g>
    </g>
</svg>