<?xml version="1.0" encoding="UTF-8"?>
<svg width="699px" height="550px" viewBox="0 0 699 550" version="1.1" xmlns="http://www.w3.org/2000/svg" xmlns:xlink="http://www.w3.org/1999/xlink">
    <!-- Generator: Sketch 58 (84663) - https://sketch.com -->
    <title>japanfoundation</title>
    <desc>Created with Sketch.</desc>
    <defs>
        <polygon id="path-1" points="5.06 0.774 692.344 0.774 692.344 537 5.06 537"></polygon>
        <polygon id="path-3" points="5.06 0.774 692.344 0.774 692.344 537 5.06 537"></polygon>
    </defs>
    <g id="Page-1" stroke="none" stroke-width="1" fill="none" fill-rule="evenodd">
        <g id="japanfoundation" transform="translate(0.000000, 0.000000)">
            <rect id="Rectangle" fill="#FFFFFF" x="0" y="440" width="699" height="110"></rect>
            <mask id="mask-2" fill="white">
                <use xlink:href="#path-1"></use>
            </mask>
            <g id="path-1"></g>
            <path d="M416.779,180.008 C416.779,217.921 428.385,257.908 459.338,297.743 C481.482,326.192 527.5,374.903 601.705,375.396 C678.455,375.887 704.152,325.081 687.497,286.112 C672.848,251.823 615.12,221.972 551.631,228.435 C578.265,210.777 609.189,201.238 617.873,199.682 C619.283,199.421 619.263,198.153 617.873,198.286 C532.285,207.418 477.66,247.446 462.05,256.616 C460.885,257.307 461.34,258.248 462.315,258.102 C475.383,256.044 551.882,243.893 595.208,267.475 C644.766,294.439 612.734,357.884 547.87,335.017 C516.505,323.945 477.229,299.606 453.41,260.042 C429.606,220.462 436.775,151.037 449.143,122.553 C469.072,76.72 504.898,74.226 519.084,88.283 C532.767,101.825 528.33,127.981 502.401,162.828 C479.694,193.342 438.917,244.565 419.168,273.758 C399.424,302.985 385.106,328.932 391.806,367.986 C400.006,415.746 445.281,435.414 459.055,374.998 C468.154,335.111 453.458,306.055 444.572,287.427 C437.919,273.493 427.16,255.66 406.96,232.708 C381.552,203.831 353.562,190.909 328.843,206.249 C312.853,216.147 306.924,245.293 332.352,262.355 C361.686,282.005 398.212,276.536 414.366,271.743 C415.606,271.345 415.535,269.996 414.153,270.2 C396.997,272.731 364.463,266.344 350.566,255.462 C326.846,236.895 345.051,200.198 392.313,235.901 C425.636,261.087 455.255,309.978 435.516,364.38 C426.313,389.712 409.303,383.557 403.579,356.015 C400.706,342.185 401.373,325.61 409.999,305.36 C421.387,278.674 443.838,260.557 480.73,234.667 C529.384,200.543 582.079,158.48 604.06,103.206 C622.945,55.749 602.263,0.774 555.35,0.774 C473.907,0.774 416.779,86.045 416.779,180.008" id="Fill-1" fill="#000000" fill-rule="nonzero" mask="url(#mask-2)"></path>
            <mask id="mask-4" fill="white">
                <use xlink:href="#path-3"></use>
            </mask>
            <g id="path-1"></g>
            <path d="M38.499,507.632 C38.499,514.748 39.301,537 17.851,537 C13.604,537 8.672,536.309 5,534.359 L5,517.274 C7.065,520.023 10.394,522.086 13.95,522.086 C21.979,522.086 21.404,513.371 21.404,507.632 L21.404,449.131 L38.499,449.131 L38.499,507.632" id="Fill-3" fill="#000000" fill-rule="nonzero" mask="url(#mask-4)"></path>
            <path d="M75.433,484.457 L73.484,471.387 L73.252,471.387 L71.421,484.457 L67.749,507.522 L79.794,507.522 L75.433,484.457 Z M83.004,449.131 L103.768,535.624 L85.528,535.624 L82.313,521.055 L64.993,521.055 L61.896,535.624 L44.919,535.624 L64.993,449.131 L83.004,449.131 L83.004,449.131 Z" id="Fill-5" fill="#000000" fill-rule="nonzero" mask="url(#mask-4)"></path>
            <path d="M127.74,486.069 C135.999,486.41 140.702,483.316 140.702,474.477 C140.702,468.284 138.293,463.246 130.953,463.246 L127.74,463.246 L127.74,486.069 Z M110.649,535.624 L110.649,449.131 L128.428,449.131 C132.1,449.131 157.794,446.84 157.794,474.713 C157.794,490.882 147.354,500.174 131.528,500.174 L127.74,499.952 L127.74,535.624 L110.649,535.624 L110.649,535.624 Z" id="Fill-6" fill="#000000" fill-rule="nonzero" mask="url(#mask-4)"></path>
            <path d="M183.032,484.457 L181.081,471.387 L180.851,471.387 L179.018,484.457 L175.346,507.522 L187.393,507.522 L183.032,484.457 Z M190.6,449.131 L211.367,535.624 L193.126,535.624 L189.912,521.055 L172.592,521.055 L169.493,535.624 L152.517,535.624 L172.592,449.131 L190.6,449.131 L190.6,449.131 Z" id="Fill-7" fill="#000000" fill-rule="nonzero" mask="url(#mask-4)"></path>
            <path d="M232.356,449.131 L253.69,501.329 L253.922,501.092 C252.891,496.962 252.545,492.491 252.545,488.019 L252.545,449.131 L269.638,449.131 L269.638,535.624 L253.466,535.624 L232.356,483.43 L232.128,483.657 L232.928,492.378 L233.042,495.936 L233.042,535.624 L215.952,535.624 L215.952,449.131 L232.356,449.131" id="Fill-8" fill="#000000" fill-rule="nonzero" mask="url(#mask-4)"></path>
            <polyline id="Fill-9" fill="#000000" fill-rule="nonzero" mask="url(#mask-4)" points="310.129 456.469 290.51 456.469 290.51 486.987 309.096 486.987 309.096 494.327 290.51 494.327 290.51 535.624 282.484 535.624 282.484 449.131 310.129 449.131 310.129 456.469"></polyline>
            <path d="M325.268,492.378 C325.268,507.632 325.845,528.97 338.232,528.97 C350.619,528.97 351.191,507.632 351.191,492.378 C351.191,477.113 350.619,455.784 338.232,455.784 C325.845,455.211 325.268,477.113 325.268,492.378 Z M359.453,492.378 C359.453,508.549 358.307,536.773 338.232,536.773 C319.304,536.773 317.009,512.561 317.009,492.378 C317.009,470.465 319.879,447.981 338.232,447.981 C357.73,447.981 359.453,473.337 359.453,492.378 L359.453,492.378 Z" id="Fill-10" fill="#000000" fill-rule="nonzero" mask="url(#mask-4)"></path>
            <path d="M404.306,508.209 C404.306,524.149 403.043,536.773 386.18,536.773 C368.863,536.773 368.054,523.695 368.054,508.209 L368.054,449.131 L376.083,449.131 L376.083,507.745 C376.083,522.086 376.892,528.97 386.18,528.97 C395.355,528.97 396.277,522.086 396.277,507.745 L396.277,449.131 L404.306,449.131 L404.306,508.209" id="Fill-11" fill="#000000" fill-rule="nonzero" mask="url(#mask-4)"></path>
            <path d="M451.447,535.624 L444.454,535.624 L424.946,477.468 C423.692,473.905 423,470.011 421.969,466.335 L421.506,466.335 C421.856,471.961 422.428,477.468 422.428,483.084 L422.428,535.624 L415.425,535.624 L415.425,449.131 L422.428,449.131 L442.267,509.24 C443.303,512.225 444.108,515.203 444.908,518.188 L445.258,518.188 C445.031,514.397 444.454,510.498 444.454,506.718 L444.454,449.131 L451.447,449.131 L451.447,535.624" id="Fill-12" fill="#000000" fill-rule="nonzero" mask="url(#mask-4)"></path>
            <path d="M471.059,528.28 L473.358,528.28 C488.844,528.28 490.793,517.382 490.793,492.378 C490.793,462.669 487.695,456.469 472.436,456.469 L471.059,456.469 L471.059,528.28 Z M463.029,449.131 L471.75,449.131 C488.267,449.131 499.05,451.189 499.05,492.378 C499.05,526.217 493.547,535.624 472.322,535.624 L463.029,535.624 L463.029,449.131 L463.029,449.131 Z" id="Fill-13" fill="#000000" fill-rule="nonzero" mask="url(#mask-4)"></path>
            <path d="M530.254,510.844 L524.515,477.69 C523.489,471.842 523.025,465.88 522.339,460.028 L521.88,460.028 C521.075,465.88 520.503,471.842 519.584,477.69 L514.537,510.844 L530.254,510.844 Z M543.328,535.624 L534.73,535.624 L531.518,517.837 L513.16,517.837 L510.07,535.624 L501.463,535.624 L518.44,449.131 L526.006,449.131 L543.328,535.624 L543.328,535.624 Z" id="Fill-14" fill="#000000" fill-rule="nonzero" mask="url(#mask-4)"></path>
            <polyline id="Fill-15" fill="#000000" fill-rule="nonzero" mask="url(#mask-4)" points="575.332 456.469 562.372 456.469 562.372 535.624 554.342 535.624 554.342 456.469 541.377 456.469 541.377 449.131 575.332 449.131 575.332 456.469"></polyline>
            <polygon id="Fill-16" fill="#000000" fill-rule="nonzero" mask="url(#mask-4)" points="585.315 535.624 593.339 535.624 593.339 449.131 585.315 449.131"></polygon>
            <path d="M610.542,492.378 C610.542,507.632 611.122,528.97 623.513,528.97 C635.895,528.97 636.472,507.632 636.472,492.378 C636.472,477.113 635.895,455.784 623.513,455.784 C611.122,455.211 610.542,477.113 610.542,492.378 Z M644.733,492.378 C644.733,508.549 643.583,536.773 623.513,536.773 C604.578,536.773 602.287,512.561 602.287,492.378 C602.287,470.465 605.154,447.981 623.513,447.981 C643.01,447.981 644.733,473.337 644.733,492.378 L644.733,492.378 Z" id="Fill-17" fill="#000000" fill-rule="nonzero" mask="url(#mask-4)"></path>
            <path d="M687.747,535.624 L680.744,535.624 L661.247,477.468 C659.982,473.905 659.296,470.011 658.265,466.335 L657.806,466.335 C658.151,471.961 658.724,477.468 658.724,483.084 L658.724,535.624 L651.726,535.624 L651.726,449.131 L658.724,449.131 L678.568,509.24 C679.604,512.225 680.403,515.203 681.203,518.188 L681.553,518.188 C681.323,514.397 680.744,510.498 680.744,506.718 L680.744,449.131 L687.747,449.131 L687.747,535.624" id="Fill-18" fill="#000000" fill-rule="nonzero" mask="url(#mask-4)"></path>
        </g>
    </g>
</svg>