<svg width="81" height="66" viewBox="0 0 81 66" fill="none" xmlns="http://www.w3.org/2000/svg">
<path d="M56.3 21.6663C56 22.1663 56 22.7663 56.1 23.3663L57.8 29.0663C58.1 30.1663 57.5 31.3663 56.4 31.6663C56.2 31.7663 56 31.7663 55.8 31.7663C54.9 31.7663 54.1 31.1663 53.8 30.2663L46.5 5.86629C46.3 5.26629 45.9 4.86627 45.4 4.56627C44.9 4.26627 44.3 4.26629 43.7 4.36629C43.1 4.56629 42.7 4.9663 42.4 5.4663C42.1 5.9663 42.1 6.56628 42.2 7.16628L43 9.86629L49.9 32.9663C50.2 34.0663 49.6 35.2663 48.5 35.5663C47.4 35.8663 46.2 35.2663 45.9 34.1663L41.1 18.1663L39 11.0663C38.8 10.4663 38.4 10.0663 37.9 9.76629C37.4 9.46629 36.8 9.46627 36.2 9.56627C35.6 9.76627 35.2 10.1663 34.9 10.6663C34.6 11.1663 34.6 11.7663 34.7 12.3663L44.6 45.6663C44.9 46.5663 44.5 47.5663 43.7 48.0663C42.9 48.5663 41.8 48.4663 41.2 47.7663L32.1 39.1663C31.6 38.6663 31.1 38.4663 30.6 38.5663C30.1 38.5663 29.6 38.8663 29.3 39.1663C28.8 39.7663 29.2 41.3663 30.1 42.7663C30.5 43.3663 40.8 57.3663 48.7 61.6663C49.7 62.2663 50.1 63.4663 49.5 64.4663C49.1 65.1663 48.4 65.5663 47.7 65.5663C47.4 65.5663 47 65.4663 46.7 65.2663C37.8 60.4663 27.1 45.7663 26.6 45.0663C24.4 41.8663 24.2 38.4663 26 36.2663C27.1 34.9663 28.7 34.2663 30.3 34.1663C32 34.0663 33.6 34.7663 34.9 35.9663L38.3 39.1663L30.6 13.4663C30.1 11.8663 30.3 10.0663 31.1 8.56627C31.9 7.06627 33.3 5.9663 34.9 5.4663C35.9 5.1663 36.9 5.16629 37.9 5.26629C38 4.56629 38.2 3.96629 38.6 3.36629C39.4 1.86629 40.8 0.766286 42.4 0.266286C45.8 -0.733714 49.4 1.16627 50.4 4.56627L54.2 17.4663C54.8 16.9663 55.5 16.6663 56.2 16.4663C58.9 15.6663 61.8 16.7663 63.3 18.9663C64 18.3663 64.7 17.9663 65.6 17.7663C68.6 16.8663 71.6 18.3663 73.4 21.6663C73.5 21.7663 73.5 21.8663 73.5 21.9663C73.8 22.7663 81 42.5663 79.9 53.3663C79.8 54.4663 78.9 55.2663 77.8 55.2663C77.7 55.2663 77.7 55.2663 77.6 55.2663C76.4 55.1663 75.6 54.1663 75.7 52.9663C76.6 43.5663 70.3 25.4663 69.6 23.5663C69.1 22.7663 68.1 21.3663 66.7 21.7663C66.1 21.9663 65.7 22.3663 65.4 22.8663C65.1 23.3663 65.1 23.9663 65.2 24.5663L66.4 28.6663C66.7 29.7663 66.1 30.9663 65 31.2663C63.9 31.5663 62.7 30.9663 62.4 29.8663L61.2 25.7663C61.1 25.5663 61.1 25.3663 61 25.0663C60.9 24.9663 60.9 24.8663 60.9 24.6663L60.1 21.9663C59.7 20.7663 58.5 20.0663 57.3 20.4663C57 20.7663 56.6 21.1663 56.3 21.6663ZM8.10003 21.2663C9.30003 21.2663 10.2 20.3663 10.2 19.1663V12.9663L12.2 14.9663C12.6 15.3663 13.1 15.5663 13.7 15.5663C14.2 15.5663 14.8 15.3663 15.2 14.9663C16 14.1663 16 12.8663 15.2 11.9663L9.70004 6.4663C8.90004 5.6663 7.50004 5.6663 6.70004 6.4663L1.40003 11.7663C0.600034 12.5663 0.600034 13.8663 1.40003 14.7663C2.20003 15.5663 3.60003 15.5663 4.40003 14.7663L6.10003 13.0663V19.2663C6.00003 20.3663 6.90003 21.2663 8.10003 21.2663ZM6.70004 45.6663C7.10004 46.0663 7.60004 46.2663 8.20004 46.2663C8.80004 46.2663 9.30004 46.0663 9.70004 45.6663L15 40.3663C15.8 39.5663 15.8 38.2663 15 37.3663C14.2 36.5663 12.8 36.5663 12 37.3663L10.1 39.2663V32.3663C10.1 31.1663 9.20002 30.2663 8.00002 30.2663C6.80002 30.2663 5.90003 31.1663 5.90003 32.3663V39.0663L4.00002 37.1663C3.20002 36.3663 1.80002 36.3663 1.00002 37.1663C0.200024 37.9663 0.200024 39.3663 1.00002 40.1663L6.70004 45.6663Z" fill="black"/>
</svg>
