<svg width="436" height="300" viewBox="0 0 436 300" fill="none" xmlns="http://www.w3.org/2000/svg">
<rect x="140.5" y="12.5" width="156" height="275" rx="78" stroke="black" stroke-width="25"/>
<path d="M3.28249 89.2825C-0.427495 92.9925 -0.427495 99.0075 3.28248 102.718L63.7401 163.175C67.4501 166.885 73.4652 166.885 77.1751 163.175C80.8851 159.465 80.8851 153.45 77.1751 149.74L23.435 96L77.1751 42.2599C80.8851 38.5499 80.8851 32.5348 77.1752 28.8249C73.4652 25.1149 67.4501 25.1149 63.7401 28.8249L3.28249 89.2825ZM104 86.5L10 86.5L10 105.5L104 105.5L104 86.5Z" fill="black"/>
<path d="M432.718 89.2825C436.427 92.9925 436.427 99.0075 432.718 102.718L372.26 163.175C368.55 166.885 362.535 166.885 358.825 163.175C355.115 159.465 355.115 153.45 358.825 149.74L412.565 96L358.825 42.2599C355.115 38.5499 355.115 32.5348 358.825 28.8249C362.535 25.1149 368.55 25.1149 372.26 28.8249L432.718 89.2825ZM332 86.5L426 86.5L426 105.5L332 105.5L332 86.5Z" fill="black"/>
<path d="M223 130V14L166.007 40.3636L143 78.5909V130H223Z" fill="black"/>
</svg>
