<svg width="33" height="22" viewBox="0 0 33 22" fill="none" xmlns="http://www.w3.org/2000/svg">
<path d="M32.62 10.53C29.25 4.30003 23.34 0.530029 16.8 0.530029C10.26 0.530029 4.34 4.30003 1 10.53L0.720001 11L0.980001 11.48C4.35 17.71 10.26 21.48 16.8 21.48C23.34 21.48 29.26 17.76 32.62 11.48L32.88 11L32.62 10.53ZM16.8 19.43C11.17 19.43 6 16.29 3 11C6 5.71003 11.17 2.57003 16.8 2.57003C22.43 2.57003 27.54 5.72003 30.59 11C27.54 16.29 22.42 19.43 16.8 19.43V19.43Z" fill="black"/>
<path d="M17.09 17.89C20.8787 17.89 23.95 14.8187 23.95 11.03C23.95 7.24131 20.8787 4.16998 17.09 4.16998C13.3013 4.16998 10.23 7.24131 10.23 11.03C10.23 14.8187 13.3013 17.89 17.09 17.89Z" fill="black"/>
</svg>
