<svg width="39" height="54" viewBox="0 0 39 54" fill="none" xmlns="http://www.w3.org/2000/svg">
<path d="M38.447 25.497C38.414 22.374 36.072 19.845 33.197 19.845C32.58 19.845 31.996 19.983 31.445 20.198C31.347 17.426 29.047 15.197 26.213 15.197C25.335 15.197 24.52 15.431 23.791 15.808C22.892 14.227 21.195 13.144 19.23 13.144C18.619 13.144 18.041 13.267 17.496 13.457V5.46196C17.496 2.60596 15.141 0.282959 12.246 0.282959C9.351 0.282959 6.996 2.60596 6.996 5.46196V26.79C4.006 26.928 1.65 28.617 0.982001 31.332C0.105001 34.899 0.393004 38.926 1.839 43.299C2.928 46.59 5.46 49.9 9.578 53.414C9.909 53.696 10.314 53.834 10.718 53.834C11.214 53.834 11.708 53.625 12.056 53.218C12.687 52.481 12.599 51.37 11.861 50.74C8.295 47.697 6.047 44.822 5.177 42.195C3.923 38.406 3.668 35.128 4.396 32.172C4.693 30.962 5.775 30.406 6.996 30.303V33.457C6.996 34.427 7.783 35.214 8.754 35.214C9.725 35.214 10.512 34.427 10.512 33.457V28.601V28.6V5.46196C10.512 4.54396 11.289 3.79796 12.246 3.79796C13.203 3.79796 13.98 4.54396 13.98 5.46196V25.347C13.98 26.317 14.767 27.104 15.738 27.104C16.709 27.104 17.496 26.317 17.496 25.347V18.321C17.496 17.404 18.273 16.658 19.23 16.658C20.186 16.658 20.964 17.404 20.964 18.321V20.374V25.347V26.305C20.964 27.276 21.75 28.063 22.722 28.063C23.693 28.063 24.479 27.276 24.479 26.305V25.347V20.374C24.479 19.457 25.257 18.711 26.212 18.711C27.169 18.711 27.946 19.457 27.946 20.374V27.892C27.946 28.863 28.733 29.65 29.704 29.65C30.675 29.65 31.462 28.863 31.462 27.892V25.565C31.462 24.37 32.257 23.361 33.196 23.361C34.137 23.361 34.931 24.37 34.931 25.565C34.931 25.608 34.932 25.651 34.936 25.694C34.948 25.844 35.982 40.772 31.145 51.346C30.741 52.229 31.129 53.272 32.012 53.676C32.248 53.784 32.497 53.834 32.742 53.834C33.408 53.834 34.045 53.453 34.342 52.809C39.439 41.666 38.533 26.738 38.447 25.497Z" fill="black"/>
</svg>
