<?xml version="1.0" encoding="UTF-8"?>
<svg width="2850px" height="2851px" viewBox="0 0 2850 2851" version="1.1" xmlns="http://www.w3.org/2000/svg" xmlns:xlink="http://www.w3.org/1999/xlink">
    <!-- Generator: Sketch 58 (84663) - https://sketch.com -->
    <title>Group</title>
    <desc>Created with Sketch.</desc>
    <g id="Page-1" stroke="none" stroke-width="1" fill="none" fill-rule="evenodd">
        <g id="Group" stroke="#000000">
            <path d="M0,2800.5 L2850,2800.5" id="Path"></path>
            <path d="M0,2750.5 L2850,2750.5" id="Path"></path>
            <path d="M0,2700.5 L2850,2700.5" id="Path"></path>
            <path d="M0,2650.5 L2850,2650.5" id="Path"></path>
            <path d="M0,2600.5 L2850,2600.5" id="Path"></path>
            <path d="M0,2550.5 L2850,2550.5" id="Path"></path>
            <path d="M0,2500.5 L2850,2500.5" id="Path"></path>
            <path d="M0,2450.5 L2850,2450.5" id="Path"></path>
            <path d="M0,2400.5 L2850,2400.5" id="Path"></path>
            <path d="M0,2350.5 L2850,2350.5" id="Path"></path>
            <path d="M0,2300.5 L2850,2300.5" id="Path"></path>
            <path d="M0,2250.5 L2850,2250.5" id="Path"></path>
            <path d="M0,2200.5 L2850,2200.5" id="Path"></path>
            <path d="M0,2150.5 L2850,2150.5" id="Path"></path>
            <path d="M0,2100.5 L2850,2100.5" id="Path"></path>
            <path d="M0,2050.5 L2850,2050.5" id="Path"></path>
            <path d="M0,2000.5 L2850,2000.5" id="Path"></path>
            <path d="M0,1950.5 L2850,1950.5" id="Path"></path>
            <path d="M0,1900.5 L2850,1900.5" id="Path"></path>
            <path d="M0,1850.5 L2850,1850.5" id="Path"></path>
            <path d="M0,1800.5 L2850,1800.5" id="Path"></path>
            <path d="M0,1750.5 L2850,1750.5" id="Path"></path>
            <path d="M0,1700.5 L2850,1700.5" id="Path"></path>
            <path d="M0,1650.5 L2850,1650.5" id="Path"></path>
            <path d="M0,1600.5 L2850,1600.5" id="Path"></path>
            <path d="M0,1550.5 L2850,1550.5" id="Path"></path>
            <path d="M0,1500.5 L2850,1500.5" id="Path"></path>
            <path d="M0,1450.5 L2850,1450.5" id="Path"></path>
            <path d="M0,1400.5 L2850,1400.5" id="Path"></path>
            <path d="M0,1350.5 L2850,1350.5" id="Path"></path>
            <path d="M0,1300.5 L2850,1300.5" id="Path"></path>
            <path d="M0,1250.5 L2850,1250.5" id="Path"></path>
            <path d="M0,1200.5 L2850,1200.5" id="Path"></path>
            <path d="M0,1150.5 L2850,1150.5" id="Path"></path>
            <path d="M0,1100.5 L2850,1100.5" id="Path"></path>
            <path d="M0,1050.5 L2850,1050.5" id="Path"></path>
            <path d="M0,1000.5 L2850,1000.5" id="Path"></path>
            <path d="M0,950.5 L2850,950.5" id="Path"></path>
            <path d="M0,900.5 L2850,900.5" id="Path"></path>
            <path d="M0,850.5 L2850,850.5" id="Path"></path>
            <path d="M0,800.5 L2850,800.5" id="Path"></path>
            <path d="M0,750.5 L2850,750.5" id="Path"></path>
            <path d="M0,700.5 L2850,700.5" id="Path"></path>
            <path d="M0,650.5 L2850,650.5" id="Path"></path>
            <path d="M0,600.5 L2850,600.5" id="Path"></path>
            <path d="M0,550.5 L2850,550.5" id="Path"></path>
            <path d="M0,500.5 L2850,500.5" id="Path"></path>
            <path d="M0,450.5 L2850,450.5" id="Path"></path>
            <path d="M0,400.5 L2850,400.5" id="Path"></path>
            <path d="M0,350.5 L2850,350.5" id="Path"></path>
            <path d="M0,300.5 L2850,300.5" id="Path"></path>
            <path d="M0,250.5 L2850,250.5" id="Path"></path>
            <path d="M0,200.5 L2850,200.5" id="Path"></path>
            <path d="M0,150.5 L2850,150.5" id="Path"></path>
            <path d="M0,100.5 L2850,100.5" id="Path"></path>
            <path d="M0,50.5 L2850,50.5" id="Path"></path>
            <path d="M2799.5,2851 L2799.5,0" id="Path"></path>
            <path d="M2749.5,2851 L2749.5,0" id="Path"></path>
            <path d="M2699.5,2851 L2699.5,0" id="Path"></path>
            <path d="M2649.5,2851 L2649.5,0" id="Path"></path>
            <path d="M2599.5,2851 L2599.5,0" id="Path"></path>
            <path d="M2549.5,2851 L2549.5,0" id="Path"></path>
            <path d="M2499.5,2851 L2499.5,0" id="Path"></path>
            <path d="M2449.5,2851 L2449.5,0" id="Path"></path>
            <path d="M2399.5,2851 L2399.5,0" id="Path"></path>
            <path d="M2349.5,2851 L2349.5,0" id="Path"></path>
            <path d="M2299.5,2851 L2299.5,0" id="Path"></path>
            <path d="M2249.5,2851 L2249.5,0" id="Path"></path>
            <path d="M2199.5,2851 L2199.5,0" id="Path"></path>
            <path d="M2149.5,2851 L2149.5,0" id="Path"></path>
            <path d="M2099.5,2851 L2099.5,0" id="Path"></path>
            <path d="M2049.5,2851 L2049.5,0" id="Path"></path>
            <path d="M1999.5,2851 L1999.5,0" id="Path"></path>
            <path d="M1949.5,2851 L1949.5,0" id="Path"></path>
            <path d="M1899.5,2851 L1899.5,0" id="Path"></path>
            <path d="M1849.5,2851 L1849.5,0" id="Path"></path>
            <path d="M1799.5,2851 L1799.5,0" id="Path"></path>
            <path d="M1749.5,2851 L1749.5,0" id="Path"></path>
            <path d="M1699.5,2851 L1699.5,0" id="Path"></path>
            <path d="M1649.5,2851 L1649.5,0" id="Path"></path>
            <path d="M1599.5,2851 L1599.5,0" id="Path"></path>
            <path d="M1549.5,2851 L1549.5,0" id="Path"></path>
            <path d="M1499.5,2851 L1499.5,0" id="Path"></path>
            <path d="M1449.5,2851 L1449.5,0" id="Path"></path>
            <path d="M1399.5,2851 L1399.5,0" id="Path"></path>
            <path d="M1349.5,2851 L1349.5,0" id="Path"></path>
            <path d="M1299.5,2851 L1299.5,0" id="Path"></path>
            <path d="M1249.5,2851 L1249.5,0" id="Path"></path>
            <path d="M1199.5,2851 L1199.5,0" id="Path"></path>
            <path d="M1149.5,2851 L1149.5,0" id="Path"></path>
            <path d="M1099.5,2851 L1099.5,0" id="Path"></path>
            <path d="M1049.5,2851 L1049.5,0" id="Path"></path>
            <path d="M999.5,2851 L999.5,0" id="Path"></path>
            <path d="M949.5,2851 L949.5,0" id="Path"></path>
            <path d="M899.5,2851 L899.5,0" id="Path"></path>
            <path d="M849.5,2851 L849.5,0" id="Path"></path>
            <path d="M799.5,2851 L799.5,0" id="Path"></path>
            <path d="M749.5,2851 L749.5,0" id="Path"></path>
            <path d="M699.5,2851 L699.5,0" id="Path"></path>
            <path d="M649.5,2851 L649.5,0" id="Path"></path>
            <path d="M599.5,2851 L599.5,0" id="Path"></path>
            <path d="M549.5,2851 L549.5,0" id="Path"></path>
            <path d="M499.5,2851 L499.5,0" id="Path"></path>
            <path d="M449.5,2851 L449.5,0" id="Path"></path>
            <path d="M399.5,2851 L399.5,0" id="Path"></path>
            <path d="M349.5,2851 L349.5,0" id="Path"></path>
            <path d="M299.5,2851 L299.5,0" id="Path"></path>
            <path d="M249.5,2851 L249.5,0" id="Path"></path>
            <path d="M199.5,2851 L199.5,0" id="Path"></path>
            <path d="M149.5,2851 L149.5,0" id="Path"></path>
            <path d="M99.5001,2851 L99.4999,0" id="Path"></path>
            <path d="M49.5001,2851 L49.4999,0" id="Path"></path>
        </g>
    </g>
</svg>