<svg width="4000" height="4000" viewBox="0 0 4000 4000" fill="none" xmlns="http://www.w3.org/2000/svg">
<line y1="3949.5" x2="4000" y2="3949.5" stroke="black"/>
<line y1="3899.5" x2="4000" y2="3899.5" stroke="black"/>
<line y1="3849.5" x2="4000" y2="3849.5" stroke="black"/>
<line y1="3799.5" x2="4000" y2="3799.5" stroke="black"/>
<line y1="3749.5" x2="4000" y2="3749.5" stroke="black"/>
<line y1="3699.5" x2="4000" y2="3699.5" stroke="black"/>
<line y1="3649.5" x2="4000" y2="3649.5" stroke="black"/>
<line y1="3599.5" x2="4000" y2="3599.5" stroke="black"/>
<line y1="3549.5" x2="4000" y2="3549.5" stroke="black"/>
<line y1="3499.5" x2="4000" y2="3499.5" stroke="black"/>
<line y1="3449.5" x2="4000" y2="3449.5" stroke="black"/>
<line y1="3399.5" x2="4000" y2="3399.5" stroke="black"/>
<line y1="3349.5" x2="4000" y2="3349.5" stroke="black"/>
<line y1="3299.5" x2="4000" y2="3299.5" stroke="black"/>
<line y1="3249.5" x2="4000" y2="3249.5" stroke="black"/>
<line y1="3199.5" x2="4000" y2="3199.5" stroke="black"/>
<line y1="3149.5" x2="4000" y2="3149.5" stroke="black"/>
<line y1="3099.5" x2="4000" y2="3099.5" stroke="black"/>
<line y1="3049.5" x2="4000" y2="3049.5" stroke="black"/>
<line y1="2999.5" x2="4000" y2="2999.5" stroke="black"/>
<line y1="2949.5" x2="4000" y2="2949.5" stroke="black"/>
<line y1="2899.5" x2="4000" y2="2899.5" stroke="black"/>
<line y1="2849.5" x2="4000" y2="2849.5" stroke="black"/>
<line y1="2799.5" x2="4000" y2="2799.5" stroke="black"/>
<line y1="2749.5" x2="4000" y2="2749.5" stroke="black"/>
<line y1="2699.5" x2="4000" y2="2699.5" stroke="black"/>
<line y1="2649.5" x2="4000" y2="2649.5" stroke="black"/>
<line y1="2599.5" x2="4000" y2="2599.5" stroke="black"/>
<line y1="2549.5" x2="4000" y2="2549.5" stroke="black"/>
<line y1="2499.5" x2="4000" y2="2499.5" stroke="black"/>
<line y1="2449.5" x2="4000" y2="2449.5" stroke="black"/>
<line y1="2399.5" x2="4000" y2="2399.5" stroke="black"/>
<line y1="2349.5" x2="4000" y2="2349.5" stroke="black"/>
<line y1="2299.5" x2="4000" y2="2299.5" stroke="black"/>
<line y1="2249.5" x2="4000" y2="2249.5" stroke="black"/>
<line y1="2199.5" x2="4000" y2="2199.5" stroke="black"/>
<line y1="2149.5" x2="4000" y2="2149.5" stroke="black"/>
<line y1="2099.5" x2="4000" y2="2099.5" stroke="black"/>
<line y1="2049.5" x2="4000" y2="2049.5" stroke="black"/>
<line y1="1999.5" x2="4000" y2="1999.5" stroke="black"/>
<line y1="1949.5" x2="4000" y2="1949.5" stroke="black"/>
<line y1="1899.5" x2="4000" y2="1899.5" stroke="black"/>
<line y1="1849.5" x2="4000" y2="1849.5" stroke="black"/>
<line y1="1799.5" x2="4000" y2="1799.5" stroke="black"/>
<line y1="1749.5" x2="4000" y2="1749.5" stroke="black"/>
<line y1="1699.5" x2="4000" y2="1699.5" stroke="black"/>
<line y1="1649.5" x2="4000" y2="1649.5" stroke="black"/>
<line y1="1599.5" x2="4000" y2="1599.5" stroke="black"/>
<line y1="1549.5" x2="4000" y2="1549.5" stroke="black"/>
<line y1="1499.5" x2="4000" y2="1499.5" stroke="black"/>
<line y1="1449.5" x2="4000" y2="1449.5" stroke="black"/>
<line y1="1399.5" x2="4000" y2="1399.5" stroke="black"/>
<line y1="1349.5" x2="4000" y2="1349.5" stroke="black"/>
<line y1="1299.5" x2="4000" y2="1299.5" stroke="black"/>
<line y1="1249.5" x2="4000" y2="1249.5" stroke="black"/>
<line y1="1199.5" x2="4000" y2="1199.5" stroke="black"/>
<line y1="1149.5" x2="4000" y2="1149.5" stroke="black"/>
<line y1="1099.5" x2="4000" y2="1099.5" stroke="black"/>
<line y1="1049.5" x2="4000" y2="1049.5" stroke="black"/>
<line y1="999.5" x2="4000" y2="999.5" stroke="black"/>
<line y1="949.5" x2="4000" y2="949.5" stroke="black"/>
<line y1="899.5" x2="4000" y2="899.5" stroke="black"/>
<line y1="849.5" x2="4000" y2="849.5" stroke="black"/>
<line y1="799.5" x2="4000" y2="799.5" stroke="black"/>
<line y1="749.5" x2="4000" y2="749.5" stroke="black"/>
<line y1="699.5" x2="4000" y2="699.5" stroke="black"/>
<line y1="649.5" x2="4000" y2="649.5" stroke="black"/>
<line y1="599.5" x2="4000" y2="599.5" stroke="black"/>
<line y1="549.5" x2="4000" y2="549.5" stroke="black"/>
<line y1="499.5" x2="4000" y2="499.5" stroke="black"/>
<line y1="449.5" x2="4000" y2="449.5" stroke="black"/>
<line y1="399.5" x2="4000" y2="399.5" stroke="black"/>
<line y1="349.5" x2="4000" y2="349.5" stroke="black"/>
<line y1="299.5" x2="4000" y2="299.5" stroke="black"/>
<line y1="249.5" x2="4000" y2="249.5" stroke="black"/>
<line y1="199.5" x2="4000" y2="199.5" stroke="black"/>
<line y1="149.5" x2="4000" y2="149.5" stroke="black"/>
<line y1="99.5" x2="4000" y2="99.5" stroke="black"/>
<line y1="49.5" x2="4000" y2="49.5" stroke="black"/>
<line x1="3949.5" y1="4000" x2="3949.5" y2="2.18556e-08" stroke="black"/>
<line x1="3899.5" y1="4000" x2="3899.5" y2="2.18556e-08" stroke="black"/>
<line x1="3849.5" y1="4000" x2="3849.5" y2="2.18556e-08" stroke="black"/>
<line x1="3799.5" y1="4000" x2="3799.5" y2="2.18556e-08" stroke="black"/>
<line x1="3749.5" y1="4000" x2="3749.5" y2="2.18556e-08" stroke="black"/>
<line x1="3699.5" y1="4000" x2="3699.5" y2="2.18556e-08" stroke="black"/>
<line x1="3649.5" y1="4000" x2="3649.5" y2="2.18556e-08" stroke="black"/>
<line x1="3599.5" y1="4000" x2="3599.5" y2="2.18556e-08" stroke="black"/>
<line x1="3549.5" y1="4000" x2="3549.5" y2="2.18556e-08" stroke="black"/>
<line x1="3499.5" y1="4000" x2="3499.5" y2="2.18556e-08" stroke="black"/>
<line x1="3449.5" y1="4000" x2="3449.5" y2="2.18556e-08" stroke="black"/>
<line x1="3399.5" y1="4000" x2="3399.5" y2="2.18556e-08" stroke="black"/>
<line x1="3349.5" y1="4000" x2="3349.5" y2="2.18556e-08" stroke="black"/>
<line x1="3299.5" y1="4000" x2="3299.5" y2="2.18556e-08" stroke="black"/>
<line x1="3249.5" y1="4000" x2="3249.5" y2="2.18556e-08" stroke="black"/>
<line x1="3199.5" y1="4000" x2="3199.5" y2="2.18556e-08" stroke="black"/>
<line x1="3149.5" y1="4000" x2="3149.5" y2="2.18556e-08" stroke="black"/>
<line x1="3099.5" y1="4000" x2="3099.5" y2="2.18556e-08" stroke="black"/>
<line x1="3049.5" y1="4000" x2="3049.5" y2="2.18556e-08" stroke="black"/>
<line x1="2999.5" y1="4000" x2="2999.5" y2="2.18556e-08" stroke="black"/>
<line x1="2949.5" y1="4000" x2="2949.5" y2="2.18556e-08" stroke="black"/>
<line x1="2899.5" y1="4000" x2="2899.5" y2="2.18556e-08" stroke="black"/>
<line x1="2849.5" y1="4000" x2="2849.5" y2="2.18556e-08" stroke="black"/>
<line x1="2799.5" y1="4000" x2="2799.5" y2="2.18556e-08" stroke="black"/>
<line x1="2749.5" y1="4000" x2="2749.5" y2="2.18556e-08" stroke="black"/>
<line x1="2699.5" y1="4000" x2="2699.5" y2="2.18556e-08" stroke="black"/>
<line x1="2649.5" y1="4000" x2="2649.5" y2="2.18556e-08" stroke="black"/>
<line x1="2599.5" y1="4000" x2="2599.5" y2="2.18556e-08" stroke="black"/>
<line x1="2549.5" y1="4000" x2="2549.5" y2="2.18556e-08" stroke="black"/>
<line x1="2499.5" y1="4000" x2="2499.5" y2="2.18556e-08" stroke="black"/>
<line x1="2449.5" y1="4000" x2="2449.5" y2="2.18556e-08" stroke="black"/>
<line x1="2399.5" y1="4000" x2="2399.5" y2="2.18556e-08" stroke="black"/>
<line x1="2349.5" y1="4000" x2="2349.5" y2="2.18556e-08" stroke="black"/>
<line x1="2299.5" y1="4000" x2="2299.5" y2="2.18556e-08" stroke="black"/>
<line x1="2249.5" y1="4000" x2="2249.5" y2="2.18556e-08" stroke="black"/>
<line x1="2199.5" y1="4000" x2="2199.5" y2="2.18556e-08" stroke="black"/>
<line x1="2149.5" y1="4000" x2="2149.5" y2="2.18556e-08" stroke="black"/>
<line x1="2099.5" y1="4000" x2="2099.5" y2="2.18556e-08" stroke="black"/>
<line x1="2049.5" y1="4000" x2="2049.5" y2="2.18556e-08" stroke="black"/>
<line x1="1999.5" y1="4000" x2="1999.5" y2="2.18556e-08" stroke="black"/>
<line x1="1949.5" y1="4000" x2="1949.5" y2="2.18556e-08" stroke="black"/>
<line x1="1899.5" y1="4000" x2="1899.5" y2="2.18556e-08" stroke="black"/>
<line x1="1849.5" y1="4000" x2="1849.5" y2="2.18556e-08" stroke="black"/>
<line x1="1799.5" y1="4000" x2="1799.5" y2="2.18556e-08" stroke="black"/>
<line x1="1749.5" y1="4000" x2="1749.5" y2="2.18556e-08" stroke="black"/>
<line x1="1699.5" y1="4000" x2="1699.5" y2="2.18556e-08" stroke="black"/>
<line x1="1649.5" y1="4000" x2="1649.5" y2="2.18556e-08" stroke="black"/>
<line x1="1599.5" y1="4000" x2="1599.5" y2="2.18556e-08" stroke="black"/>
<line x1="1549.5" y1="4000" x2="1549.5" y2="2.18556e-08" stroke="black"/>
<line x1="1499.5" y1="4000" x2="1499.5" y2="2.18556e-08" stroke="black"/>
<line x1="1449.5" y1="4000" x2="1449.5" y2="2.18556e-08" stroke="black"/>
<line x1="1399.5" y1="4000" x2="1399.5" y2="2.18556e-08" stroke="black"/>
<line x1="1349.5" y1="4000" x2="1349.5" y2="2.18556e-08" stroke="black"/>
<line x1="1299.5" y1="4000" x2="1299.5" y2="2.18556e-08" stroke="black"/>
<line x1="1249.5" y1="4000" x2="1249.5" y2="2.18556e-08" stroke="black"/>
<line x1="1199.5" y1="4000" x2="1199.5" y2="2.18556e-08" stroke="black"/>
<line x1="1149.5" y1="4000" x2="1149.5" y2="2.18556e-08" stroke="black"/>
<line x1="1099.5" y1="4000" x2="1099.5" y2="2.18556e-08" stroke="black"/>
<line x1="1049.5" y1="4000" x2="1049.5" y2="2.18556e-08" stroke="black"/>
<line x1="999.5" y1="4000" x2="999.5" y2="2.18556e-08" stroke="black"/>
<line x1="949.5" y1="4000" x2="949.5" y2="2.18556e-08" stroke="black"/>
<line x1="899.5" y1="4000" x2="899.5" y2="2.18556e-08" stroke="black"/>
<line x1="849.5" y1="4000" x2="849.5" y2="2.18556e-08" stroke="black"/>
<line x1="799.5" y1="4000" x2="799.5" y2="2.18556e-08" stroke="black"/>
<line x1="749.5" y1="4000" x2="749.5" y2="2.18556e-08" stroke="black"/>
<line x1="699.5" y1="4000" x2="699.5" y2="2.18556e-08" stroke="black"/>
<line x1="649.5" y1="4000" x2="649.5" y2="2.18556e-08" stroke="black"/>
<line x1="599.5" y1="4000" x2="599.5" y2="2.18556e-08" stroke="black"/>
<line x1="549.5" y1="4000" x2="549.5" y2="2.18556e-08" stroke="black"/>
<line x1="499.5" y1="4000" x2="499.5" y2="2.18556e-08" stroke="black"/>
<line x1="449.5" y1="4000" x2="449.5" y2="2.18556e-08" stroke="black"/>
<line x1="399.5" y1="4000" x2="399.5" y2="2.18556e-08" stroke="black"/>
<line x1="349.5" y1="4000" x2="349.5" y2="2.18556e-08" stroke="black"/>
<line x1="299.5" y1="4000" x2="299.5" y2="2.18556e-08" stroke="black"/>
<line x1="249.5" y1="4000" x2="249.5" y2="2.18556e-08" stroke="black"/>
<line x1="199.5" y1="4000" x2="199.5" y2="2.18556e-08" stroke="black"/>
<line x1="149.5" y1="4000" x2="149.5" y2="2.18556e-08" stroke="black"/>
<line x1="99.5001" y1="4000" x2="99.4999" y2="2.18556e-08" stroke="black"/>
<line x1="49.5001" y1="4000" x2="49.4999" y2="2.18556e-08" stroke="black"/>
</svg>
