<?xml version="1.0" encoding="UTF-8"?>
<svg width="1401px" height="311px" viewBox="0 0 1401 311" version="1.1" xmlns="http://www.w3.org/2000/svg" xmlns:xlink="http://www.w3.org/1999/xlink">
    <!-- Generator: Sketch 58 (84663) - https://sketch.com -->
    <title>logo-top-en</title>
    <desc>Created with Sketch.</desc>
    <g id="Page-1" stroke="none" stroke-width="1" fill="none" fill-rule="evenodd">
        <g id="logo-top-en" transform="translate(1.350000, 1.000000)">
            <polygon id="Path-Copy" fill="#000000" fill-rule="nonzero" points="1376.09 117.66 0.09 117.66 0.09 309.42 1376.09 309.42"></polygon>
            <polygon id="Path-Copy-2" fill="#FFFFFF" fill-rule="nonzero" points="1399 0 0 0 0 281.53 1399 281.53"></polygon>
            <g id="Group-3-Copy" transform="translate(65.890000, 70.630000)" fill="#000000" fill-rule="nonzero">
                <path d="M67.24,140.26 C29.29,140.26 0,111.17 0,70.13 C0,29.09 29.28,0 67.24,0 C105.19,0 134.48,29.09 134.48,70.13 C134.48,111.17 105.2,140.26 67.24,140.26 Z M113.29,70.13 C113.29,39.11 93.45,18.88 67.25,18.88 C41.05,18.88 21.21,39.11 21.21,70.13 C21.21,101.15 41.05,121.38 67.25,121.38 C93.44,121.38 113.29,101.15 113.29,70.13 Z" id="Shape"></path>
                <path d="M150.66,2.7 L172.62,2.7 L206.34,96.91 C206.34,96.91 209.23,106.93 211.35,114.06 C213.47,106.93 216.36,96.91 216.36,96.91 L250.07,2.7 L272.03,2.7 L222.13,137.56 L200.56,137.56 L150.66,2.7 Z" id="Path"></path>
                <polygon id="Path" points="298.62 2.7 387.24 2.7 387.24 21.2 319.42 21.2 319.42 58.58 381.84 58.58 381.84 77.08 319.42 77.08 319.42 119.08 387.81 119.08 387.81 137.58 298.61 137.58 298.61 2.7"></polygon>
                <path d="M472.98,80.73 L446.39,80.73 L446.39,137.56 L425.58,137.56 L425.58,2.7 L481.26,2.7 C509.58,2.7 526.92,18.69 526.92,40.85 C526.92,60.12 514.59,73.79 494.94,79 L528.46,137.57 L504.38,137.57 L472.98,80.73 Z M446.39,62.62 L479.91,62.62 C497.06,62.62 506.11,55.49 506.11,41.81 C506.11,28.13 497.05,20.81 479.91,20.81 L446.39,20.81 L446.39,62.62 Z" id="Shape"></path>
                <path d="M687.22,137.56 L664.68,137.56 L637.13,31.21 L609.58,137.56 L587.04,137.56 L549.86,2.7 L571.63,2.7 L595.52,96.14 C595.52,96.14 597.83,105.39 598.8,110.2 C599.76,105.38 602.07,95.94 602.07,95.94 L626.15,2.69 L648.11,2.69 L672.19,95.94 C672.19,95.94 674.5,105.38 675.47,110.2 C676.43,105.38 678.74,96.14 678.74,96.14 L702.63,2.7 L724.4,2.7 L687.22,137.56 Z" id="Path"></path>
                <path d="M811.67,140.26 C773.72,140.26 744.43,111.17 744.43,70.13 C744.43,29.09 773.71,0 811.67,0 C849.63,0 878.91,29.09 878.91,70.13 C878.91,111.17 849.63,140.26 811.67,140.26 Z M857.72,70.13 C857.72,39.11 837.88,18.88 811.68,18.88 C785.48,18.88 765.64,39.11 765.64,70.13 C765.64,101.15 785.48,121.38 811.68,121.38 C837.87,121.38 857.72,101.15 857.72,70.13 Z" id="Shape"></path>
                <path d="M962.52,80.73 L935.93,80.73 L935.93,137.56 L915.12,137.56 L915.12,2.7 L970.8,2.7 C999.12,2.7 1016.46,18.69 1016.46,40.85 C1016.46,60.12 1004.13,73.79 984.48,79 L1018,137.57 L993.92,137.57 L962.52,80.73 Z M935.94,62.62 L969.46,62.62 C986.61,62.62 995.66,55.49 995.66,41.81 C995.66,28.13 986.61,20.81 969.46,20.81 L935.94,20.81 L935.94,62.62 Z" id="Shape"></path>
                <polygon id="Path" points="1052.88 2.7 1073.69 2.7 1073.69 119.07 1141.31 119.07 1141.31 137.57 1052.88 137.57"></polygon>
                <path d="M1173.68,2.7 L1212.6,2.7 C1253.64,2.7 1283.69,26.01 1283.69,70.13 C1283.69,114.25 1253.64,137.56 1212.6,137.56 L1173.68,137.56 L1173.68,2.7 Z M1262.49,70.13 C1262.49,37.19 1242.26,21.58 1212.98,21.58 L1194.49,21.58 L1194.49,118.68 L1212.98,118.68 C1242.27,118.68 1262.49,103.08 1262.49,70.13 Z" id="Shape"></path>
            </g>
            <polygon id="Path-Copy-3" stroke="#000000" stroke-width="1.11" points="1399 0 4.85375629e-15 0 4.85375629e-15 281.53 1399 281.53"></polygon>
        </g>
    </g>
</svg>