<?xml version="1.0" encoding="UTF-8"?>
<svg width="1615px" height="311px" viewBox="0 0 1615 311" version="1.1" xmlns="http://www.w3.org/2000/svg" xmlns:xlink="http://www.w3.org/1999/xlink">
    <!-- Generator: Sketch 58 (84663) - https://sketch.com -->
    <title>logo-top-ja</title>
    <desc>Created with Sketch.</desc>
    <g id="Page-1" stroke="none" stroke-width="1" fill="none" fill-rule="evenodd">
        <g id="logo-top-ja" transform="translate(1.350000, 1.000000)">
            <polygon id="Path-Copy-6" fill="#000000" fill-rule="nonzero" points="1590.09 117.66 0.09 117.66 0.09 309.42 1590.09 309.42"></polygon>
            <polygon id="Path-Copy-5" fill="#FFFFFF" fill-rule="nonzero" points="1613 -2.84217094e-14 0 -2.84217094e-14 0 281.53 1613 281.53"></polygon>
            <polygon id="Path-Copy-4" stroke="#000000" stroke-width="1.11" points="1613 -2.84217094e-14 5.59621793e-15 -2.84217094e-14 5.59621793e-15 281.53 1613 281.53"></polygon>
            <g id="Group-2-Copy-2" transform="translate(55.650000, 46.360000)" fill="#000000" fill-rule="nonzero">
                <path d="M116.95,8.48 L116.95,41.23 L160.11,41.23 L160.11,61.07 L116.95,61.07 L116.95,145.45 C116.95,160.86 108.47,168.76 91.71,168.76 C83.04,168.76 73.79,167.99 63.97,166.83 L63.97,146.99 C75.91,148.92 84.78,149.88 90.56,149.88 C93.64,149.88 95.18,148.15 95.18,144.87 L95.18,81.1 C89.01,91.89 78.03,104.6 62.04,119.44 C45.86,134.08 29.87,146.22 13.68,155.66 L0,138.71 C17.72,128.31 33.71,116.75 47.97,104.22 C63,90.93 76.29,76.48 87.85,61.06 L5.78,61.06 L5.78,41.22 L95.17,41.22 L95.17,8.47 L116.95,8.47 L116.95,8.48 Z" id="Path"></path>
                <polygon id="Path" points="346.79 79.57 346.79 99.41 198.64 99.41 198.64 79.57"></polygon>
                <path d="M444.09,30.25 C441.59,56.26 436.38,80.34 428.29,102.69 C419.81,125.42 408.45,146.42 394,165.5 L373.58,155.48 C387.84,137.56 399.2,117.91 407.3,96.72 C415.39,75.34 420.21,52.22 422.13,27.56 L444.09,30.25 Z M529.24,87.27 C540.8,112.89 549.47,137.17 555.25,160.29 L533.29,164.53 C527.9,142.57 519.8,119.26 508.82,94.6 C498.03,70.52 486.47,49.9 474.53,32.56 L493.41,22.93 C506.12,41.23 518.07,62.61 529.24,87.27 Z M537.14,40.46 L525.97,48.36 C520.58,38.92 513.64,30.25 505.36,22.35 L515.96,14.26 C524.62,21.96 531.74,30.83 537.14,40.46 Z M557.18,25.82 L545.81,34.1 C540.22,24.47 533.48,15.8 525.39,8.09 L535.79,0 C545.04,8.29 552.17,16.96 557.18,25.82 Z" id="Shape"></path>
                <polygon id="Path" points="732.11 79.57 732.11 99.41 583.96 99.41 583.96 79.57"></polygon>
                <path d="M909.36,20.23 L921.69,27.94 C921.11,62.81 913.79,91.9 899.92,115.21 C884.51,140.64 861.2,159.33 829.79,170.89 L816.88,153.74 C842.89,144.11 862.73,130.04 876.6,111.16 C890.47,92.09 898.18,68.39 899.72,40.07 L801.08,40.07 L801.08,81.49 L779.5,81.49 L779.5,20.22 L909.36,20.22 L909.36,20.23 Z" id="Path"></path>
                <polygon id="Path" points="1117.43 79.57 1117.43 99.41 969.28 99.41 969.28 79.57"></polygon>
                <path d="M1208.76,20.42 L1208.76,79.76 C1208.76,101.53 1205.68,119.06 1199.9,132.16 C1193.35,146.22 1181.98,159.13 1165.61,170.69 L1151.93,154.7 C1165.42,144.68 1174.86,133.89 1180.06,122.72 C1184.68,112.32 1187.19,97.87 1187.19,79.76 L1187.19,20.42 L1208.76,20.42 L1208.76,20.42 Z M1263.66,16.19 L1263.66,137.37 C1282.73,122.92 1299.11,105.39 1312.98,84.97 L1330.32,97.11 C1320.88,110.6 1309.51,123.7 1296.41,136.03 C1282.15,149.13 1268.28,159.15 1255.18,165.7 L1242.08,158.57 L1242.08,16.19 L1263.66,16.19 Z" id="Shape"></path>
                <path d="M1411.82,8.67 L1411.82,67.62 C1427.23,70.32 1442.64,74.17 1458.06,79.37 C1472.12,83.99 1486.19,89.58 1500.44,96.32 L1491.19,114.24 C1478.47,108.46 1465.95,103.45 1453.43,99.21 C1439.37,94.59 1425.49,90.93 1411.82,88.42 L1411.82,170.88 L1390.24,170.88 L1390.24,8.67 L1411.82,8.67 Z M1486.38,49.13 L1475.21,57.03 C1469.82,47.4 1462.88,38.73 1454.59,31.02 L1465.19,22.93 C1473.86,30.63 1480.99,39.5 1486.38,49.13 Z M1506.03,35.26 L1494.66,43.55 C1489.07,33.72 1482.33,25.05 1474.24,17.54 L1484.64,9.45 C1493.89,17.53 1501.02,26.2 1506.03,35.26 Z" id="Shape"></path>
            </g>
        </g>
    </g>
</svg>