<?xml version="1.0" encoding="UTF-8"?>
<svg width="136px" height="106px" viewBox="0 0 136 106" version="1.1" xmlns="http://www.w3.org/2000/svg" xmlns:xlink="http://www.w3.org/1999/xlink">
    <!-- Generator: Sketch 43.1 (39012) - http://www.bohemiancoding.com/sketch -->
    <title>black-back-closed-envelope-shape</title>
    <desc>Created with Sketch.</desc>
    <defs></defs>
    <g id="Page-1" stroke="none" stroke-width="1" fill="none" fill-rule="evenodd">
        <g id="black-back-closed-envelope-shape" transform="translate(0.722963, 0.000000)" fill-rule="nonzero" fill="#000000">
            <path d="M122.579878,105.946633 C125.60544,105.946633 128.227057,104.945875 130.455724,102.96982 L92.3218093,64.7669792 C91.4068827,65.4232979 90.5200589,66.0615012 89.6823537,66.6683695 C86.8285843,68.7746605 84.512432,70.4182725 82.7338969,71.5960231 C80.9556061,72.7764665 78.5896021,73.9796767 75.6361292,75.2081016 C72.6807013,76.4379954 69.9273686,77.0509838 67.3731986,77.0509838 L67.298421,77.0509838 L67.2236433,77.0509838 C64.6692289,77.0509838 61.9158962,76.4382402 58.9607127,75.2081016 C56.0055292,73.9796767 53.6395252,72.7764665 51.862945,71.5960231 C50.0846542,70.4182725 47.7697238,68.7749053 44.9144883,66.6683695 C44.1188149,66.0840231 43.2363898,65.4428822 42.2823638,64.7566975 L4.14111797,102.96982 C6.36954088,104.945875 8.992868,105.946633 12.0181861,105.946633 L122.579878,105.946633 L122.579878,105.946633 Z" id="Shape"></path>
            <path d="M7.58699926,40.7106097 C4.73347427,38.8048129 2.20300829,36.6221432 0,34.1635797 L0,92.286097 L33.6110885,58.615552 C26.8869647,53.912873 18.223265,47.9514134 7.58699926,40.7106097 Z" id="Shape"></path>
            <path d="M127.087553,40.7106097 C116.856944,47.6473672 108.16172,53.6191085 101.000904,58.6290162 L134.598553,92.2875658 L134.598553,34.1635797 C132.444419,36.5726928 129.941078,38.7538938 127.087553,40.7106097 Z" id="Shape"></path>
            <path d="M122.579878,0.00318244804 L12.0184305,0.00318244804 C8.16127209,0.00318244804 5.19582499,1.30798614 3.1184236,3.91490069 C1.03931162,6.52303926 0.00146622848,9.7848037 0.00146622848,13.6965219 C0.00146622848,16.8562032 1.37874351,20.2797829 4.13207623,23.9682402 C6.88540894,27.6552286 9.81517781,30.5512564 12.9199166,32.6577921 C14.6219635,33.8624711 19.7547407,37.4370947 28.3182481,43.3804388 C32.9410221,46.5895704 36.9611762,49.3866975 40.4158549,51.8004619 C43.3605304,53.8558337 45.9000382,55.6358014 47.9967449,57.1129469 C48.2374507,57.2821062 48.615982,57.5533487 49.1184097,57.9132102 C49.6596924,58.3026928 50.3446654,58.7969515 51.1897018,59.4082263 C52.816971,60.5872009 54.1688337,61.5402217 55.2455341,62.2682679 C56.3207683,62.9965589 57.6235123,63.8100416 59.1518112,64.7133672 C60.6788881,65.6154688 62.1192132,66.2938199 63.4710759,66.7449931 C64.8231829,67.1959215 66.0748533,67.4221201 67.2263314,67.4221201 L67.301109,67.4221201 L67.3758867,67.4221201 C68.5271204,67.4221201 69.7790352,67.1959215 71.1313866,66.7449931 C72.4830049,66.2938199 73.9221081,65.6169376 75.4504069,64.7133672 C76.9772395,63.8100416 78.2782729,62.9948453 79.3569283,62.2682679 C80.4336288,61.5402217 81.7854914,60.5874457 83.4130051,59.4082263 C84.2563308,58.7969515 84.9413039,58.302448 85.4825866,57.9144342 C85.9852585,57.5531039 86.3635455,57.2835751 86.6057176,57.1129469 C88.2390961,55.9743649 90.7844687,54.2017413 94.206646,51.8212702 C100.433718,47.4870208 109.604489,41.1076813 121.757568,32.6577921 C125.412631,30.1003279 128.466296,27.0140878 130.920518,23.4034781 C133.370342,19.7928684 134.598553,16.0055104 134.598553,12.0426282 C134.598553,8.7316582 133.407731,5.89854503 131.031219,3.53888222 C128.652019,1.18215704 125.834661,0.00318244804 122.579878,0.00318244804 Z" id="Shape"></path>
        </g>
    </g>
</svg>