<svg width="1874" height="731" viewBox="0 0 1874 731" fill="none" xmlns="http://www.w3.org/2000/svg">
<path d="M416.1 119.19C409.36 154.06 388.94 169.86 354.26 169.86C330.56 169.86 310.53 154.83 310.53 129.02C310.53 124.4 310.92 119.19 311.88 113.8L327.87 32.31H348.68L332.5 115.92C331.73 119.97 331.34 122.86 331.34 125.55C331.34 141.15 341.36 150.98 357.35 150.98C377.77 150.98 391.45 138.84 395.69 117.26L412.26 32.3H433.07L416.1 119.19Z" fill="black"/>
<path d="M473.9 32.31H494.71L471.98 148.68H538.83L535.17 167.18H447.5L473.9 32.31Z" fill="black"/>
<path d="M570.23 32.31H673.49L669.64 51.19H628.41L605.87 167.17H585.06L607.6 51.19H566.37L570.23 32.31Z" fill="black"/>
<path d="M737.46 110.33H710.1L698.93 167.16H678.12L704.51 32.3H756.91C783.3 32.3 798.91 45.02 798.91 66.4C798.91 89.33 780.8 104.93 759.03 109.17L781 167.17H758.27L737.46 110.33ZM713.57 92.22H747.09C763.66 92.22 777.53 84.51 777.53 68.91C777.53 56 769.63 50.41 755.18 50.41H721.66L713.57 92.22Z" fill="black"/>
<path d="M883.49 32.31H904.87L932.42 167.17H911.04L903.72 129.6H848.62L826.85 167.17H803.73L883.49 32.31ZM883.3 68.91L858.83 111.49H900.64L892.55 68.91C891.2 61.98 890.43 56 890.43 56C890.43 56 887.34 61.98 883.3 68.91Z" fill="black"/>
<path d="M986.18 32.31H1007.56L1031.45 145.01L1098.88 32.31H1121.81L1095.42 167.17H1075.38L1093.68 73.73C1091.75 77.2 1082.89 92.8 1082.89 92.8L1037.81 167.17H1017.39L1001.01 93.57C1001.01 93.57 998.31 77.96 997.93 74.5L979.82 167.17H959.78L986.18 32.31Z" fill="black"/>
<path d="M1250.89 119.19C1244.15 154.06 1223.73 169.86 1189.05 169.86C1165.35 169.86 1145.32 154.83 1145.32 129.02C1145.32 124.4 1145.71 119.19 1146.67 113.8L1162.66 32.31H1183.47L1167.29 115.92C1166.52 119.97 1166.14 122.86 1166.14 125.55C1166.14 141.15 1176.16 150.98 1192.15 150.98C1212.57 150.98 1226.25 138.84 1230.49 117.26L1247.06 32.3H1267.87L1250.89 119.19Z" fill="black"/>
<path d="M1308.69 32.31H1330.07L1371.68 127.48C1371.68 127.48 1374.96 134.8 1375.53 137.69L1396.14 32.31H1416.18L1389.79 167.17H1368.41L1326.6 72.19C1326.6 72.19 1323.32 64.87 1322.75 61.98L1302.33 167.17H1282.29L1308.69 32.31Z" fill="black"/>
<path d="M1458.96 32.31H1496.72C1533.33 32.31 1557.02 51.19 1557.02 88.18C1557.02 133.65 1526.19 167.17 1473.02 167.17H1432.56L1458.96 32.31ZM1535.64 90.49C1535.64 63.33 1519.46 51.19 1494.02 51.19H1475.91L1457.22 148.29H1475.71C1514.06 148.29 1535.64 123.63 1535.64 90.49Z" fill="black"/>
<path d="M1647.96 169.86C1613.09 169.86 1587.85 145.59 1587.85 109.37C1587.85 69.1 1616.17 29.61 1663.95 29.61C1701.91 29.61 1724.64 52.92 1724.64 89.91C1724.64 131.91 1696.12 169.86 1647.96 169.86ZM1703.25 91.26C1703.25 63.71 1686.68 48.49 1661.83 48.49C1631.01 48.49 1609.24 78.16 1609.24 108.6C1609.24 136.15 1627.73 150.98 1650.08 150.98C1682.25 150.98 1703.25 123.24 1703.25 91.26Z" fill="black"/>
<path d="M1786.48 66.98C1786.48 78.35 1796.88 83.93 1818.08 88.94C1838.89 93.95 1853.53 104.35 1853.53 124.2C1853.53 151.56 1832.34 169.86 1800.16 169.86C1769.91 169.86 1753.54 150.02 1750.26 127.86L1769.33 117.84C1771.83 136.53 1781.85 151.75 1802.08 151.75C1817.69 151.75 1832.13 143.08 1832.13 127.48C1832.13 114.57 1821.92 109.95 1803.42 105.32C1783.19 100.31 1766.82 87.98 1766.82 68.72C1766.82 45.41 1786.66 29.61 1815.56 29.61C1840.8 29.61 1855.83 41.94 1861.41 62.17L1845.23 72.96C1841.19 57.55 1830.4 47.72 1814.02 47.72C1800.35 47.72 1786.48 53.11 1786.48 66.98Z" fill="black"/>
<path d="M1387.44 331.3H0V523.06H1387.44V331.3Z" fill="black"/>
<path d="M1410.35 213.64H28.21V495.17H1410.35V213.64Z" fill="white"/>
<path d="M144.48 424.53C106.53 424.53 77.24 395.44 77.24 354.4C77.24 313.36 106.52 284.27 144.48 284.27C182.43 284.27 211.72 313.36 211.72 354.4C211.72 395.44 182.44 424.53 144.48 424.53ZM190.53 354.4C190.53 323.38 170.69 303.15 144.49 303.15C118.29 303.15 98.45 323.38 98.45 354.4C98.45 385.42 118.29 405.65 144.49 405.65C170.68 405.65 190.53 385.42 190.53 354.4Z" fill="black"/>
<path d="M227.9 286.97H249.86L283.58 381.18C283.58 381.18 286.47 391.2 288.59 398.33C290.71 391.2 293.6 381.18 293.6 381.18L327.31 286.97H349.27L299.37 421.83H277.8L227.9 286.97Z" fill="black"/>
<path d="M375.86 286.97H464.48V305.47H396.66V342.85H459.08V361.35H396.66V403.35H465.05V421.85H375.85V286.97H375.86Z" fill="black"/>
<path d="M550.22 365H523.63V421.83H502.82V286.97H558.5C586.82 286.97 604.16 302.96 604.16 325.12C604.16 344.39 591.83 358.06 572.18 363.27L605.7 421.84H581.62L550.22 365ZM523.63 346.89H557.15C574.3 346.89 583.35 339.76 583.35 326.08C583.35 312.4 574.29 305.08 557.15 305.08H523.63V346.89Z" fill="black"/>
<path d="M764.46 421.83H741.92L714.37 315.48L686.82 421.83H664.28L627.1 286.97H648.87L672.76 380.41C672.76 380.41 675.07 389.66 676.04 394.47C677 389.65 679.31 380.21 679.31 380.21L703.39 286.96H725.35L749.43 380.21C749.43 380.21 751.74 389.65 752.71 394.47C753.67 389.65 755.98 380.41 755.98 380.41L779.87 286.97H801.64L764.46 421.83Z" fill="black"/>
<path d="M888.91 424.53C850.96 424.53 821.67 395.44 821.67 354.4C821.67 313.36 850.95 284.27 888.91 284.27C926.87 284.27 956.15 313.36 956.15 354.4C956.15 395.44 926.87 424.53 888.91 424.53ZM934.96 354.4C934.96 323.38 915.12 303.15 888.92 303.15C862.72 303.15 842.88 323.38 842.88 354.4C842.88 385.42 862.72 405.65 888.92 405.65C915.11 405.65 934.96 385.42 934.96 354.4Z" fill="black"/>
<path d="M1039.76 365H1013.17V421.83H992.36V286.97H1048.04C1076.36 286.97 1093.7 302.96 1093.7 325.12C1093.7 344.39 1081.37 358.06 1061.72 363.27L1095.24 421.84H1071.16L1039.76 365ZM1013.18 346.89H1046.7C1063.85 346.89 1072.9 339.76 1072.9 326.08C1072.9 312.4 1063.85 305.08 1046.7 305.08H1013.18V346.89Z" fill="black"/>
<path d="M1130.12 286.97H1150.93V403.34H1218.55V421.84H1130.12V286.97V286.97Z" fill="black"/>
<path d="M1250.92 286.97H1289.84C1330.88 286.97 1360.93 310.28 1360.93 354.4C1360.93 398.52 1330.88 421.83 1289.84 421.83H1250.92V286.97ZM1339.73 354.4C1339.73 321.46 1319.5 305.85 1290.22 305.85H1271.73V402.95H1290.22C1319.51 402.95 1339.73 387.35 1339.73 354.4Z" fill="black"/>
<path d="M1410.35 213.64H28.21V495.17H1410.35V213.64Z" stroke="black" stroke-width="1.11"/>
<path d="M262.2 550.39V583.14H305.36V602.98H262.2V687.36C262.2 702.77 253.72 710.67 236.96 710.67C228.29 710.67 219.04 709.9 209.22 708.74V688.9C221.16 690.83 230.03 691.79 235.81 691.79C238.89 691.79 240.43 690.06 240.43 686.78V623.01C234.26 633.8 223.28 646.51 207.29 661.35C191.11 675.99 175.12 688.13 158.93 697.57L145.25 680.62C162.97 670.22 178.96 658.66 193.22 646.13C208.25 632.84 221.54 618.39 233.1 602.97H151.03V583.13H240.42V550.38H262.2V550.39Z" fill="black"/>
<path d="M492.04 621.48V641.32H343.89V621.48H492.04Z" fill="black"/>
<path d="M589.34 572.16C586.84 598.17 581.63 622.25 573.54 644.6C565.06 667.33 553.7 688.33 539.25 707.41L518.83 697.39C533.09 679.47 544.45 659.82 552.55 638.63C560.64 617.25 565.46 594.13 567.38 569.47L589.34 572.16ZM674.49 629.18C686.05 654.8 694.72 679.08 700.5 702.2L678.54 706.44C673.15 684.48 665.05 661.17 654.07 636.51C643.28 612.43 631.72 591.81 619.78 574.47L638.66 564.84C651.37 583.14 663.32 604.52 674.49 629.18ZM682.39 582.37L671.22 590.27C665.83 580.83 658.89 572.16 650.61 564.26L661.21 556.17C669.87 563.87 676.99 572.74 682.39 582.37ZM702.43 567.73L691.06 576.01C685.47 566.38 678.73 557.71 670.64 550L681.04 541.91C690.29 550.2 697.42 558.87 702.43 567.73Z" fill="black"/>
<path d="M877.36 621.48V641.32H729.21V621.48H877.36Z" fill="black"/>
<path d="M1054.61 562.14L1066.94 569.85C1066.36 604.72 1059.04 633.81 1045.17 657.12C1029.76 682.55 1006.45 701.24 975.04 712.8L962.13 695.65C988.14 686.02 1007.98 671.95 1021.85 653.07C1035.72 634 1043.43 610.3 1044.97 581.98H946.33V623.4H924.75V562.13H1054.61V562.14Z" fill="black"/>
<path d="M1262.68 621.48V641.32H1114.53V621.48H1262.68Z" fill="black"/>
<path d="M1354.01 562.33V621.67C1354.01 643.44 1350.93 660.97 1345.15 674.07C1338.6 688.13 1327.23 701.04 1310.86 712.6L1297.18 696.61C1310.67 686.59 1320.11 675.8 1325.31 664.63C1329.93 654.23 1332.44 639.78 1332.44 621.67V562.33H1354.01V562.33ZM1408.91 558.1V679.28C1427.98 664.83 1444.36 647.3 1458.23 626.88L1475.57 639.02C1466.13 652.51 1454.76 665.61 1441.66 677.94C1427.4 691.04 1413.53 701.06 1400.43 707.61L1387.33 700.48V558.1H1408.91Z" fill="black"/>
<path d="M1557.07 550.58V609.53C1572.48 612.23 1587.89 616.08 1603.31 621.28C1617.37 625.9 1631.44 631.49 1645.69 638.23L1636.44 656.15C1623.72 650.37 1611.2 645.36 1598.68 641.12C1584.62 636.5 1570.74 632.84 1557.07 630.33V712.79H1535.49V550.58H1557.07ZM1631.63 591.04L1620.46 598.94C1615.07 589.31 1608.13 580.64 1599.84 572.93L1610.44 564.84C1619.11 572.54 1626.24 581.41 1631.63 591.04ZM1651.28 577.17L1639.91 585.46C1634.32 575.63 1627.58 566.96 1619.49 559.45L1629.89 551.36C1639.14 559.44 1646.27 568.11 1651.28 577.17Z" fill="black"/>
</svg>
