<?xml version="1.0" encoding="UTF-8"?>
<svg width="1657px" height="311px" viewBox="0 0 1657 311" version="1.1" xmlns="http://www.w3.org/2000/svg" xmlns:xlink="http://www.w3.org/1999/xlink">
    <!-- Generator: Sketch 58 (84663) - https://sketch.com -->
    <title>logo-top-es</title>
    <desc>Created with Sketch.</desc>
    <g id="Page-1" stroke="none" stroke-width="1" fill="none" fill-rule="evenodd">
        <g id="logo-top-es" transform="translate(1.350000, 0.640000)">
            <polygon id="Path" fill="#000000" fill-rule="nonzero" points="1632.09 117.66 0.09 117.66 0.09 309.42 1632.09 309.42"></polygon>
            <polygon id="Path" fill="#FFFFFF" fill-rule="nonzero" points="1655 0 0 0 0 281.53 1655 281.53"></polygon>
            <polygon id="Path" stroke="#000000" stroke-width="1.11" points="1655 0 5.74193471e-15 0 5.74193471e-15 281.53 1655 281.53"></polygon>
            <g id="Group" transform="translate(53.650000, 70.360000)" fill="#000000" fill-rule="nonzero">
                <path d="M105.57,89.58 C98.83,124.45 78.41,140.25 43.73,140.25 C20.03,140.25 -2.84217094e-14,125.22 -2.84217094e-14,99.41 C-2.84217094e-14,94.79 0.39,89.58 1.35,84.19 L17.34,2.7 L38.15,2.7 L21.97,86.31 C21.2,90.36 20.81,93.25 20.81,95.94 C20.81,111.54 30.83,121.37 46.82,121.37 C67.24,121.37 80.92,109.23 85.16,87.65 L101.73,2.69 L122.54,2.69 L105.57,89.58 Z" id="Path"></path>
                <polygon id="Path" points="163.37 2.7 184.18 2.7 161.45 119.07 228.3 119.07 224.64 137.57 136.97 137.57"></polygon>
                <polygon id="Path" points="259.7 2.7 362.96 2.7 359.11 21.58 317.88 21.58 295.34 137.56 274.53 137.56 297.07 21.58 255.84 21.58"></polygon>
                <path d="M426.93,80.72 L399.57,80.72 L388.4,137.55 L367.59,137.55 L393.98,2.69 L446.38,2.69 C472.77,2.69 488.38,15.41 488.38,36.79 C488.38,59.72 470.27,75.32 448.5,79.56 L470.47,137.56 L447.74,137.56 L426.93,80.72 Z M403.04,62.61 L436.56,62.61 C453.13,62.61 467,54.9 467,39.3 C467,26.39 459.1,20.8 444.65,20.8 L411.13,20.8 L403.04,62.61 Z" id="Shape"></path>
                <path d="M572.96,2.7 L594.34,2.7 L621.89,137.56 L600.51,137.56 L593.19,99.99 L538.09,99.99 L516.32,137.56 L493.2,137.56 L572.96,2.7 Z M572.77,39.3 L548.3,81.88 L590.11,81.88 L582.02,39.3 C580.67,32.37 579.9,26.39 579.9,26.39 C579.9,26.39 576.81,32.37 572.77,39.3 Z" id="Shape"></path>
                <path d="M675.65,2.7 L697.03,2.7 L720.92,115.4 L788.35,2.7 L811.28,2.7 L784.89,137.56 L764.85,137.56 L783.15,44.12 C781.22,47.59 772.36,63.19 772.36,63.19 L727.28,137.56 L706.86,137.56 L690.48,63.96 C690.48,63.96 687.78,48.35 687.4,44.89 L669.29,137.56 L649.25,137.56 L675.65,2.7 Z" id="Path"></path>
                <path d="M940.36,89.58 C933.62,124.45 913.2,140.25 878.52,140.25 C854.82,140.25 834.79,125.22 834.79,99.41 C834.79,94.79 835.18,89.58 836.14,84.19 L852.13,2.7 L872.94,2.7 L856.76,86.31 C855.99,90.36 855.61,93.25 855.61,95.94 C855.61,111.54 865.63,121.37 881.62,121.37 C902.04,121.37 915.72,109.23 919.96,87.65 L936.53,2.69 L957.34,2.69 L940.36,89.58 Z" id="Path"></path>
                <path d="M998.16,2.7 L1019.54,2.7 L1061.15,97.87 C1061.15,97.87 1064.43,105.19 1065,108.08 L1085.61,2.7 L1105.65,2.7 L1079.26,137.56 L1057.88,137.56 L1016.07,42.58 C1016.07,42.58 1012.79,35.26 1012.22,32.37 L991.8,137.56 L971.76,137.56 L998.16,2.7 Z" id="Path"></path>
                <path d="M1148.43,2.7 L1186.19,2.7 C1222.8,2.7 1246.49,21.58 1246.49,58.57 C1246.49,104.04 1215.66,137.56 1162.49,137.56 L1122.03,137.56 L1148.43,2.7 Z M1225.11,60.88 C1225.11,33.72 1208.93,21.58 1183.49,21.58 L1165.38,21.58 L1146.69,118.68 L1165.18,118.68 C1203.53,118.68 1225.11,94.02 1225.11,60.88 Z" id="Shape"></path>
                <path d="M1337.43,140.25 C1302.56,140.25 1277.32,115.98 1277.32,79.76 C1277.32,39.49 1305.64,0 1353.42,0 C1391.38,0 1414.11,23.31 1414.11,60.3 C1414.11,102.3 1385.59,140.25 1337.43,140.25 Z M1392.72,61.65 C1392.72,34.1 1376.15,18.88 1351.3,18.88 C1320.48,18.88 1298.71,48.55 1298.71,78.99 C1298.71,106.54 1317.2,121.37 1339.55,121.37 C1371.72,121.37 1392.72,93.63 1392.72,61.65 Z" id="Shape"></path>
                <path d="M1475.95,37.37 C1475.95,48.74 1486.35,54.32 1507.55,59.33 C1528.36,64.34 1543,74.74 1543,94.59 C1543,121.95 1521.81,140.25 1489.63,140.25 C1459.38,140.25 1443.01,120.41 1439.73,98.25 L1458.8,88.23 C1461.3,106.92 1471.32,122.14 1491.55,122.14 C1507.16,122.14 1521.6,113.47 1521.6,97.87 C1521.6,84.96 1511.39,80.34 1492.89,75.71 C1472.66,70.7 1456.29,58.37 1456.29,39.11 C1456.29,15.8 1476.13,0 1505.03,0 C1530.27,0 1545.3,12.33 1550.88,32.56 L1534.7,43.35 C1530.66,27.94 1519.87,18.11 1503.49,18.11 C1489.82,18.11 1475.95,23.5 1475.95,37.37 Z" id="Path"></path>
            </g>
        </g>
    </g>
</svg>