<?xml version="1.0" encoding="UTF-8"?>
<svg width="573px" height="621px" viewBox="0 0 573 621" version="1.1" xmlns="http://www.w3.org/2000/svg" xmlns:xlink="http://www.w3.org/1999/xlink">
    <!-- Generator: Sketch 58 (84663) - https://sketch.com -->
    <title>Group</title>
    <desc>Created with Sketch.</desc>
    <g id="Page-1" stroke="none" stroke-width="1" fill="none" fill-rule="evenodd">
        <g id="Group">
            <rect id="Rectangle" fill="#FFFFFF" x="0" y="514" width="573" height="107"></rect>
            <g id="proyector" transform="translate(6.000000, 0.000000)" fill="#000000" fill-rule="nonzero">
                <path d="M149.979,103.356 L201.535,103.356 L201.535,51.801 L149.979,51.801 L149.979,103.356 Z M253.091,438.473 L98.422,283.804 L149.979,283.804 L149.979,154.913 L253.091,154.913 L253.091,0.244 L407.76,154.913 L407.76,309.582 L304.648,309.582 L304.648,438.473 L253.091,438.473 L253.091,438.473 Z" id="Fill-1"></path>
                <path d="M8.819,550.694 L8.819,573.733 L18.269,573.733 C27.539,573.733 37.528,573.461 37.528,562.393 C37.528,554.473 32.849,550.694 23.309,550.694 L8.819,550.694 Z M0,542.864 L26.639,542.864 C38.968,542.864 47.518,550.873 47.518,562.393 C47.518,574.002 38.698,581.471 24.929,581.471 L8.91,581.471 L8.91,607.75 L0,607.75 L0,542.864 L0,542.864 Z" id="Fill-2"></path>
                <path d="M70.372,550.422 L70.372,570.942 L87.381,570.942 C95.481,570.942 99.891,567.342 99.891,560.592 C99.891,553.842 95.481,550.422 86.662,550.422 L70.372,550.422 Z M61.462,542.864 L89.002,542.864 C100.791,542.864 109.25,550.332 109.25,560.592 C109.25,569.952 104.571,574.723 95.571,577.243 L111.771,607.75 L102.231,607.75 L86.571,578.592 L70.372,578.592 L70.372,607.75 L61.462,607.75 L61.462,542.864 L61.462,542.864 Z" id="Fill-3"></path>
                <path d="M130.934,575.893 C130.934,591.371 139.664,602.08 152.263,602.08 C165.313,602.08 173.683,591.461 173.683,574.993 C173.683,559.422 165.313,549.252 152.533,549.252 C139.214,549.252 130.934,559.422 130.934,575.893 Z M152.533,541.334 C170.712,541.334 183.132,554.832 183.132,575.082 C183.132,604.692 161.443,609.911 152.173,609.911 C133.274,609.911 121.484,596.592 121.484,575.262 C121.484,554.203 134.174,541.334 152.533,541.334 L152.533,541.334 Z" id="Fill-4"></path>
                <polyline id="Fill-5" points="190.325 542.864 200.315 542.864 217.684 572.112 235.863 542.864 245.853 542.864 222.184 581.112 222.184 607.75 213.274 607.75 213.274 581.471 190.325 542.864"></polyline>
                <polyline id="Fill-6" points="257.637 542.864 298.045 542.864 295.615 550.514 266.457 550.514 266.457 570.403 293.185 570.403 293.185 578.143 266.457 578.143 266.457 600.012 295.706 600.012 298.316 607.75 257.637 607.75 257.637 542.864"></polyline>
                <path d="M364.278,595.782 C361.668,600.282 355.999,610 339.708,610 C311.18,610 309.111,582.823 309.111,577.243 C309.111,555.823 321.439,541.334 339.529,541.334 C357.798,541.334 363.198,554.473 364.008,557.534 L357.168,563.383 C355.458,558.703 352.128,549.434 340.069,549.434 C327.29,549.434 318.65,559.963 318.65,575.621 C318.65,600.012 334.58,602.08 339.529,602.08 C344.749,602.08 349.609,600.102 353.388,596.411 C355.369,594.522 356.358,593.082 358.158,589.391 L364.278,595.782" id="Fill-7"></path>
                <polyline id="Fill-8" points="375.432 542.864 428.169 542.864 428.169 550.694 406.21 550.694 406.21 607.75 397.391 607.75 397.391 550.694 375.432 550.694 375.432 542.864"></polyline>
                <path d="M447.064,575.893 C447.064,591.371 455.793,602.08 468.393,602.08 C481.442,602.08 489.812,591.461 489.812,574.993 C489.812,559.422 481.442,549.252 468.663,549.252 C455.343,549.252 447.064,559.422 447.064,575.893 Z M468.663,541.334 C486.842,541.334 499.261,554.832 499.261,575.082 C499.261,604.692 477.573,609.911 468.303,609.911 C449.404,609.911 437.614,596.592 437.614,575.262 C437.614,554.203 450.303,541.334 468.663,541.334 L468.663,541.334 Z" id="Fill-9"></path>
                <path d="M521.485,550.422 L521.485,570.942 L538.494,570.942 C546.593,570.942 551.003,567.342 551.003,560.592 C551.003,553.842 546.593,550.422 537.774,550.422 L521.485,550.422 Z M512.575,542.864 L540.114,542.864 C551.903,542.864 560.363,550.332 560.363,560.592 C560.363,569.952 555.683,574.723 546.683,577.243 L562.882,607.75 L553.343,607.75 L537.684,578.592 L521.485,578.592 L521.485,607.75 L512.575,607.75 L512.575,542.864 L512.575,542.864 Z" id="Fill-10"></path>
            </g>
        </g>
    </g>
</svg>