<?xml version="1.0" encoding="UTF-8"?>
<svg width="128px" height="124px" viewBox="0 0 128 124" version="1.1" xmlns="http://www.w3.org/2000/svg" xmlns:xlink="http://www.w3.org/1999/xlink">
    <!-- Generator: Sketch 43.1 (39012) - http://www.bohemiancoding.com/sketch -->
    <title>Shape</title>
    <desc>Created with Sketch.</desc>
    <defs></defs>
    <g id="Page-1" stroke="none" stroke-width="1" fill="none" fill-rule="evenodd">
        <path d="M118.772555,31.7966884 C113.103287,22.0830638 105.413286,14.3927738 95.7005287,8.72408337 C85.9863259,3.05510384 75.3813124,0.221336897 63.8779708,0.221336897 C52.3760748,0.221336897 41.7675917,3.05597123 32.0554128,8.72408337 C22.3417883,14.3924846 14.6520765,22.0830638 8.9828078,31.7966884 C3.31440653,41.5100238 0.480061326,52.1170612 0.480061326,63.6175116 C0.480061326,77.4321615 4.51053894,89.8546487 12.5735181,100.888153 C20.6356298,111.922526 31.0506847,119.557881 43.8178153,123.795087 C45.3039455,124.070917 46.4040866,123.876911 47.1193952,123.217982 C47.8349929,122.558187 48.1923581,121.731852 48.1923581,120.742448 C48.1923581,120.577355 48.1781907,119.092092 48.1507233,116.284925 C48.1223885,113.477758 48.1090885,111.028824 48.1090885,108.939278 L46.2103692,109.26773 C44.9997803,109.489493 43.4725936,109.583461 41.6288091,109.556861 C39.785892,109.531128 37.8727162,109.337989 35.8918839,108.978889 C33.9101843,108.62297 32.066978,107.797502 30.3608196,106.504222 C28.6555286,105.210942 27.4449396,103.518083 26.7293419,101.428249 L25.9038747,99.5286624 C25.3536595,98.264006 24.4874249,96.8591215 23.3040142,95.319213 C22.1206035,93.7778589 20.9238928,92.7329417 19.7133039,92.1827266 L19.1353323,91.768981 C18.7502106,91.494018 18.3928454,91.1623854 18.0623694,90.7775529 C17.7321825,90.3927203 17.484976,90.0075987 17.3198826,89.6218987 C17.1545,89.2359097 17.2915478,88.9193119 17.7324716,88.6709489 C18.1733955,88.4225859 18.9702388,88.3020185 20.1264712,88.3020185 L21.7768275,88.5486467 C22.8775469,88.7692532 24.2390619,89.4281814 25.8631073,90.529479 C27.4862853,91.6299093 28.820622,93.0605264 29.8664066,94.8207522 C31.1327977,97.0777041 32.6585388,98.7974516 34.4479668,99.9808623 C36.2359491,101.164273 38.0386771,101.754966 39.8544159,101.754966 C41.6701548,101.754966 43.238398,101.61734 44.5597239,101.343534 C45.8796041,101.068282 47.1179495,100.654536 48.274182,100.10461 C48.7694623,96.4158846 50.1179664,93.5821177 52.3185378,91.6012854 C49.1820514,91.2716767 46.3621627,90.7752398 43.8574261,90.1151552 C41.3541352,89.4542031 38.7672857,88.3815294 36.0986122,86.8942426 C33.428493,85.4089798 31.2134651,83.5646171 29.4529502,81.3643348 C27.6921461,79.162896 26.2470724,76.2727487 25.119753,72.6964949 C23.9918554,69.1187955 23.427762,64.9917483 23.427762,60.3141969 C23.427762,53.6540784 25.6020225,47.9865445 29.9496762,43.3084148 C27.9130417,38.3012547 28.1053134,32.6880774 30.5270696,26.469461 C32.1230693,25.9736024 34.4898907,26.3457132 37.6263771,27.5834804 C40.7634419,28.8218258 43.0602937,29.8826452 44.5192456,30.7621799 C45.9781975,31.6414254 47.1471517,32.3865144 48.0278429,32.9907969 C53.1468964,31.5604689 58.4295977,30.8451603 63.8773925,30.8451603 C69.3251873,30.8451603 74.6090452,31.5604689 79.7283878,32.9907969 L82.8651634,31.0105429 C85.0102218,29.689217 87.5432931,28.4783389 90.4583057,27.3776195 C93.375053,26.2774784 95.6054048,25.9744697 97.1470481,26.4703284 C99.6225825,32.6892339 99.843189,38.3021221 97.8059762,43.3092822 C102.153341,47.9874119 104.328469,53.6563914 104.328469,60.3150643 C104.328469,64.9926157 103.762351,69.1326737 102.636189,72.7378405 C101.50858,76.3435856 100.051074,79.2308417 98.2630914,81.4056805 C96.4730851,83.5802301 94.2438898,85.4101363 91.5752164,86.89511 C88.9059646,88.3812402 86.3182476,89.453914 83.8149567,90.114866 C81.3105093,90.7758181 78.4906206,91.2725441 75.3541342,91.602731 C78.2147902,94.0782654 79.6454074,97.9858626 79.6454074,103.323788 L79.6454074,120.740135 C79.6454074,121.729539 79.9894726,122.555585 80.6781811,123.215669 C81.3660223,123.874598 82.4522852,124.068604 83.9384154,123.792485 C96.7072808,119.555857 107.122336,111.920213 115.184158,100.88584 C123.245113,89.8523356 127.277037,77.4298485 127.277037,63.6151985 C127.274145,52.1161938 124.438355,41.5100238 118.772555,31.7966884 Z" id="Shape" fill="#000000" fill-rule="nonzero"></path>
    </g>
</svg>