<?xml version="1.0" encoding="UTF-8"?>
<svg width="142px" height="115px" viewBox="0 0 142 115" version="1.1" xmlns="http://www.w3.org/2000/svg" xmlns:xlink="http://www.w3.org/1999/xlink">
    <!-- Generator: Sketch 43.1 (39012) - http://www.bohemiancoding.com/sketch -->
    <title>Shape</title>
    <desc>Created with Sketch.</desc>
    <defs></defs>
    <g id="Page-1" stroke="none" stroke-width="1" fill="none" fill-rule="evenodd">
        <path d="M141.473124,13.5873786 C136.2696,15.8931002 130.686293,17.4568142 124.819998,18.1549296 C130.809884,14.5680206 135.394992,8.87867979 137.568113,2.12021968 C131.949461,5.44192798 125.747507,7.85391465 119.139204,9.16143735 C113.847433,3.51621963 106.320399,0 97.971659,0 C81.9547369,0 68.9679871,12.9867498 68.9679871,28.9948935 C68.9679871,31.2652704 69.2241784,33.4827457 69.7190041,35.6031964 C45.6185423,34.3926984 24.2479385,22.8460716 9.94488754,5.3005492 C7.44465464,9.57656426 6.02231943,14.5590112 6.02231943,19.8775793 C6.02231943,29.9401908 11.1463762,38.8188706 18.920823,44.0133857 C14.1677701,43.8544501 9.69747467,42.5469274 5.78391599,40.3735752 L5.78391599,40.7358006 C5.78391599,54.7826602 15.7846166,66.5060104 29.0451145,69.1741884 C26.615571,69.8279497 24.0536581,70.1901751 21.403268,70.1901751 C19.5304612,70.1901751 17.7193344,70.0046732 15.9435522,69.6512262 C19.6362643,81.1802961 30.3438588,89.5641502 43.0302942,89.7940062 C33.1090614,97.5684531 20.5993495,102.188906 7.01197089,102.188906 C4.67090462,102.188906 2.36495203,102.047527 0.0945751516,101.791336 C12.9311678,110.034042 28.1707376,114.839996 44.5498851,114.839996 C97.9014316,114.839996 127.06427,70.6496561 127.06427,32.3256112 L126.967015,28.5709882 C132.665134,24.5068103 137.594679,19.4005414 141.473124,13.5873786 Z" id="Shape" fill="#010002" fill-rule="nonzero"></path>
    </g>
</svg>