<?xml version="1.0" encoding="UTF-8"?>
<svg width="118px" height="118px" viewBox="0 0 118 118" version="1.1" xmlns="http://www.w3.org/2000/svg" xmlns:xlink="http://www.w3.org/1999/xlink">
    <!-- Generator: Sketch 43.1 (39012) - http://www.bohemiancoding.com/sketch -->
    <title>linkedin-logo</title>
    <desc>Created with Sketch.</desc>
    <defs></defs>
    <g id="Page-1" stroke="none" stroke-width="1" fill="none" fill-rule="evenodd">
        <g id="linkedin-logo" fill-rule="nonzero" fill="#000000">
            <path d="M109.06239,0 L8.70133643,0 C3.89564269,0 0.000547563805,3.77627378 0.000547563805,8.43713689 L0.000547563805,109.317828 C0.000547563805,113.978965 3.8970116,117.758524 8.70133643,117.758524 L109.06239,117.758524 C113.866988,117.758524 117.757703,113.976501 117.757703,109.317828 L117.757703,8.43713689 C117.757703,3.77764269 113.866988,0 109.06239,0 Z M35.7011601,98.5718886 L17.9088956,98.5718886 L17.9088956,45.4053596 L35.7011601,45.4053596 L35.7011601,98.5718886 Z M26.8068074,38.1419258 L26.6871647,38.1419258 C20.7206357,38.1419258 16.8529188,34.0614803 16.8529188,28.9529838 C16.8529188,23.7415452 20.8342552,19.7717077 26.919058,19.7717077 C33.0044084,19.7717077 36.7475545,23.7404501 36.8658283,28.9529838 C36.8658283,34.0625754 33.0057773,38.1419258 26.8068074,38.1419258 Z M99.8370348,98.5718886 L82.0505197,98.5718886 L82.0505197,70.125949 C82.0505197,62.9783248 79.4734107,58.101174 73.0411787,58.101174 C68.1204965,58.101174 65.1995174,61.3914849 63.9168492,64.5681763 C63.4415638,65.7027285 63.3238376,67.2895684 63.3238376,68.8742181 L63.3238376,98.5707935 L45.5406079,98.5707935 C45.5406079,98.5707935 45.7733225,50.3909281 45.5406079,45.4045383 L63.3265754,45.4045383 L63.3265754,52.9420278 C65.6876705,49.3201671 69.9069234,44.1536288 79.3521253,44.1536288 C91.0590394,44.1536288 99.8370348,51.748065 99.8370348,68.086 L99.8370348,98.5718886 Z M63.211587,53.1109513 C63.2419768,53.061123 63.284413,53.0011647 63.3265754,52.9428492 L63.3265754,53.1109513 L63.211587,53.1109513 Z" id="LinkedIn__x28_alt_x29_"></path>
        </g>
    </g>
</svg>