<?xml version="1.0" encoding="UTF-8"?>
<svg width="132px" height="104px" viewBox="0 0 132 104" version="1.1" xmlns="http://www.w3.org/2000/svg" xmlns:xlink="http://www.w3.org/1999/xlink">
    <!-- Generator: Sketch 43.1 (39012) - http://www.bohemiancoding.com/sketch -->
    <title>Shape</title>
    <desc>Created with Sketch.</desc>
    <defs></defs>
    <g id="Page-1" stroke="none" stroke-width="1" fill="none" fill-rule="evenodd">
        <path d="M16.2911784,21.2157554 C16.4539359,19.6076572 15.8406981,18.018231 14.6399179,16.93592 L2.40835857,2.2010582 L2.40835857,0 L40.3873502,0 L69.7430925,64.380952 L95.5516831,0 L131.757098,0 L131.757098,2.2010582 L121.299115,12.2281011 C120.397522,12.9153477 119.950286,14.0448862 120.137117,15.1628454 L120.137117,88.837155 C119.950286,89.955114 120.397522,91.084652 121.299115,91.771899 L131.512467,101.798942 L131.512467,104 L80.1399181,104 L80.1399181,101.798942 L90.7202171,91.527337 C91.7598991,90.487948 91.7598991,90.182246 91.7598991,88.592593 L91.7598991,29.0417402 L62.3429991,103.755438 L58.3677424,103.755438 L24.1193763,29.0417402 L24.1193763,79.115814 C23.8338259,81.221069 24.533018,83.3406 26.015268,84.863022 L39.7757722,101.55438 L39.7757722,103.755438 L0.757098074,103.755438 L0.757098074,101.55438 L14.5176023,84.863022 C15.9890602,83.338076 16.6474819,81.204485 16.2911784,79.115814 L16.2911784,21.2157554 Z" id="Shape" fill="#000000" fill-rule="nonzero"></path>
    </g>
</svg>